<?xml version="1.0" encoding="UTF-8"?> <svg xmlns="http://www.w3.org/2000/svg" xmlns:xlink="http://www.w3.org/1999/xlink" id="pale-blue_bg" viewBox="0 0 1366 787.38"><defs><style>.cls-1{fill:url(#Unbenannter_Verlauf_10-2);}.cls-2{fill:url(#Unbenannter_Verlauf_285-5);}.cls-3,.cls-4{fill:#fff;}.cls-5{fill:url(#Unbenannter_Verlauf_17);}.cls-6{opacity:.5;}.cls-7{fill:url(#Unbenannter_Verlauf_4);}.cls-8{stroke-dasharray:0 0 11.9 11.9;}.cls-8,.cls-9,.cls-10,.cls-11,.cls-12,.cls-13{fill:none;stroke-linecap:round;stroke-miterlimit:10;}.cls-8,.cls-9,.cls-11,.cls-12,.cls-13{stroke:#fff;stroke-width:2px;}.cls-9{stroke-dasharray:0 0 12.02 12.02;}.cls-4{font-family:OpenSans, 'Open Sans';font-size:14.13px;}.cls-14{fill:#f6f3ee;}.cls-15{mask:url(#mask-5);}.cls-10{stroke:#459a9e;stroke-width:.5px;}.cls-16{fill:url(#Unbenannter_Verlauf_285-4);}.cls-17{mask:url(#mask-4);}.cls-18{clip-path:url(#clippath);}.cls-19{fill:url(#Unbenannter_Verlauf_285);}.cls-20{fill:url(#Unbenannter_Verlauf_285-2);}.cls-12{stroke-dasharray:0 0 13.03 13.03;}.cls-21{fill:url(#Unbenannter_Verlauf_285-3);}.cls-22{fill:url(#Unbenannter_Verlauf_4-2);}.cls-23{opacity:.25;}.cls-13{stroke-dasharray:0 0 9.72 9.72;}.cls-24{fill:url(#Unbenannter_Verlauf_10);}</style><mask id="mask" x="-3337.85" y="-1872.92" width="1366" height="629.69" maskUnits="userSpaceOnUse"></mask><mask id="mask-1" x="-3337.85" y="-930.15" width="1366" height="558.81" maskUnits="userSpaceOnUse"></mask><mask id="mask-2" x="-3352" width="1366" height="581.54" maskUnits="userSpaceOnUse"></mask><mask id="mask-3" x="-3337.85" y="857.53" width="1366" height="501.57" maskUnits="userSpaceOnUse"></mask><radialGradient id="Unbenannter_Verlauf_4" cx="1013.3" cy="759.17" fx="1013.3" fy="759.17" r="1199.64" gradientTransform="translate(0 0) scale(1 .95)" gradientUnits="userSpaceOnUse"><stop offset="0" stop-color="#daeef8"></stop><stop offset="1" stop-color="#daeef8" stop-opacity="0"></stop></radialGradient><clipPath id="clippath"><path class="cls-7" d="M1366,718.18c-87.14-9.73-218.37-20.33-378.15-16.95-235.26,4.98-343.44,36.27-593.23,46.15C299.95,751.13,164.64,752.6,0,740.66V0H1366V718.18Z"></path></clipPath><radialGradient id="Unbenannter_Verlauf_4-2" cx="693.69" cy="975.69" fx="693.69" fy="975.69" r="967.48" gradientTransform="translate(1367.53 814.46) rotate(180)" xlink:href="#Unbenannter_Verlauf_4"></radialGradient><radialGradient id="Unbenannter_Verlauf_10" cx="-5735.31" cy="-23.53" fx="-5735.31" fy="-23.53" r="248.94" gradientTransform="translate(7524.4 -2048.13) rotate(-19.16) scale(1.17 1.68) skewX(-15.23)" gradientUnits="userSpaceOnUse"><stop offset="0" stop-color="#fff"></stop><stop offset=".64" stop-color="#000"></stop></radialGradient><mask id="mask-4" x="803.65" y="-215.45" width="802.66" height="642.96" maskUnits="userSpaceOnUse"><ellipse class="cls-24" cx="1204.99" cy="106.03" rx="279.53" ry="431.51" transform="translate(530.59 1110.23) rotate(-61.14)"></ellipse></mask><linearGradient id="Unbenannter_Verlauf_285" x1="-5403.6" y1="612.92" x2="-5393.47" y2="723.36" gradientTransform="translate(-5064.81) rotate(-180) scale(1 -1)" gradientUnits="userSpaceOnUse"><stop offset="0" stop-color="#fff"></stop><stop offset="1" stop-color="#fff" stop-opacity="0"></stop></linearGradient><linearGradient id="Unbenannter_Verlauf_285-2" x1="956.98" y1="523.3" x2="1003.65" y2="692.86" gradientTransform="matrix(1, 0, 0, 1, 0, 0)" xlink:href="#Unbenannter_Verlauf_285"></linearGradient><linearGradient id="Unbenannter_Verlauf_17" x1="1086.7" y1="422.33" x2="1102.7" y2="562.64" gradientUnits="userSpaceOnUse"><stop offset="0" stop-color="#fff" stop-opacity=".6"></stop><stop offset="1" stop-color="#fff" stop-opacity="0"></stop></linearGradient><linearGradient id="Unbenannter_Verlauf_285-3" x1="-5677.33" y1="108.78" x2="-5746.51" y2="334.45" xlink:href="#Unbenannter_Verlauf_285"></linearGradient><radialGradient id="Unbenannter_Verlauf_10-2" cx="-4667.37" cy="92.68" fx="-4667.37" fy="92.68" r="248.94" gradientTransform="translate(-46.64 6162.53) rotate(90.33) scale(1.3 -1.77) skewX(.08)" xlink:href="#Unbenannter_Verlauf_10"></radialGradient><mask id="mask-5" x="-270.96" y="-237.94" width="847.49" height="684.66" maskUnits="userSpaceOnUse"><ellipse class="cls-1" cx="152.78" cy="104.39" rx="439.52" ry="321.62" transform="translate(-28.65 68.03) rotate(-23.01)"></ellipse></mask><linearGradient id="Unbenannter_Verlauf_285-4" x1="683.76" y1=".68" x2="683.76" y2="50.13" gradientTransform="matrix(1, 0, 0, 1, 0, 0)" xlink:href="#Unbenannter_Verlauf_285"></linearGradient><linearGradient id="Unbenannter_Verlauf_285-5" x1="617.58" y1="237.95" x2="740.65" y2="477.95" gradientTransform="matrix(1, 0, 0, 1, 0, 0)" xlink:href="#Unbenannter_Verlauf_285"></linearGradient></defs><g><path class="cls-7" d="M1366,718.18c-87.14-9.73-218.37-20.33-378.15-16.95-235.26,4.98-343.44,36.27-593.23,46.15C299.95,751.13,164.64,752.6,0,740.66V0H1366V718.18Z"></path><g class="cls-18"><rect class="cls-22" x="1.53" y="0" width="1364.47" height="814.46" transform="translate(1367.53 814.46) rotate(-180)"></rect><g class="cls-17"><g class="cls-23"><path class="cls-10" d="M1501.77,139.94c-23.26-2.09-62.21,4.84-72.6-2.17-15.95-10.75-18.22-18.97-41.24-39.25-14.12-12.44-26.47-23.31-43.01-31.32-34.23-16.57-45.29-.92-66.65-16.02-20.2-14.28-13.54-30.55-40.82-62.07-13.54-15.65-30.24-36.41-50.6-37.28-13.54-.58-25.45,7.64-30.61,18.55-6.14,12.97-2.3,28.78-1.52,31.97,3.16,13.01,9.83,21.66,6.86,24.52-2.54,2.45-9.8-1.6-11.53-2.52-13.51-7.18-19.9-22.32-21.5-26.23-9.67-23.71,1.62-34.67-7.99-46.58-6.52-8.08-13.72-5.5-26.36-12.8-9.76-5.64-22.34-16.92-33.23-42.01"></path><path class="cls-10" d="M1045.81-104.42c18.5,37.74,34.29,49.84,45.61,53.62,4.2,1.4,12.72,3.31,18.03,10.59,4.86,6.67,3.47,12.96,4.06,21.83,1.08,15.96,8.4,37.5,22.43,49.83,9.49,8.34,25.08,15.12,32.81,10.1,6.26-4.07,2.43-12.68,7.77-33.84,3.26-12.93,5.83-22.54,12.78-23.64,4.47-.71,10.09,2.21,23.4,15.39,23.45,23.22,26.05,34.01,40.92,48.38,15.93,15.4,32.48,21.89,44.73,26.7,32.25,12.66,39.06,2.25,61.71,14.94,12.88,7.22,22.65,18.72,42.18,41.71,23.77,27.98,24.22,35.3,38.13,46.4,10.3,8.23,55.79-6.41,78,5.3"></path><path class="cls-10" d="M1029.84-102.23c11.41,13.42,26.21,31.92,41.99,54.98,11.38,16.63,20.65,30.18,31.37,49.53,19.36,34.92,20.67,47.63,36.86,60.13,2.55,1.97,20.88,16.11,34.25,11.3,16.82-6.05,16.55-38.75,16.52-40.34-.23-11.98-3.66-22.8,.15-24.05,2.13-.69,5.26,2.01,9.06,5.5,10.87,9.99,16.3,14.99,24.34,24.89,10.62,13.09,22.54,19.8,36.74,27.8,17.09,9.62,18.68,5.71,49.03,17.85,33.08,13.23,40.77,21.7,43.58,25.08,9.51,11.41,12.52,23.64,14.24,30.62,5.46,22.15-2.47,28.33,3.73,52.11,2.67,10.23,4.64,17.79,10.93,24.51,2.78,2.97,13.67,13.55,53.2,11.91,16.19-.67,62.1-18.31,87.81-28.19"></path><path class="cls-10" d="M1532.72,219.33c-27.86-5.08-70.19,12.8-82.59,16.4-18.01,5.24-23.94,12.43-41.97,12.17-12.79-.18-37.67-4.2-45.23-18.39-5.71-10.71,4.1-16.59,3.18-45.7-.21-6.58-1.06-12.65-2.76-24.78-2.75-19.63-4.13-29.44-7.47-35.4-4.81-8.59-12.63-14.01-39.78-25.62-48.84-20.89-52.44-15.7-70.47-27.92-27.15-18.41-38.43-43.36-45.11-40.78-6.99,2.7,6.75,29.45-5.19,43.7-7.15,8.53-19.75,8.1-25.68,7.9-36.91-1.25-69.3-41.93-72.54-46.09-18.91-24.3-15.77-36.05-36.83-75.88-13.22-25.01-27.1-44.28-36.91-56.81"></path><path class="cls-10" d="M1542.96,237.23c-22.34-12.35-61.13,1.15-71.6,2.36-28.36,3.27-39.19,27.69-64.45,20.38-4.73-1.37-9.69-3.87-19.61-8.88-16.53-8.35-24.8-12.52-28.8-18.53-4.83-7.25-1.74-11.37,.29-41.05,1.24-18.12,1-30.02-.85-42.67-1.73-11.79-2.71-17.98-7.34-24.21-6.49-8.75-15.64-11.53-34.27-16.69-42.04-11.63-53.83-13.62-76.6-20.25-21.4-6.23-21.51-7.53-28.37-7.76-24.17-.83-30.29,14.97-49.5,15.32-19.33,.36-37.11-15.19-48.25-24.93-29.09-25.43-32.09-50.24-62.5-103.21-13.59-23.68-26.55-42.35-35.67-54.78"></path><path class="cls-10" d="M1550.46,256.88c-32.74-7.77-80.5,7.84-97.67,10.27-28.96,4.11-40.86,13.64-62.68,5.4-16.05-6.06-34.71-20.7-40.67-38.44-1.77-5.26-.59-5.42,3.15-44.04,1.72-17.72,2.5-28.33-1.26-42.44-1.98-7.41-3.32-12.44-7.02-17.8-7.33-10.62-19.32-15.61-50.52-22.78-35.77-8.22-53.66-12.32-76.06-10.74-32.97,2.33-30.57,12.44-52.16,10.44-43.31-4.01-80.36-47.2-84.99-52.72-22.26-26.54-16.58-36.99-41.6-62.04-17.75-17.77-27-18.9-44.19-36.67-18.83-19.45-29.1-40.16-34.71-53.98"></path><path class="cls-10" d="M1562.05,273.17c-41.89-2.11-72.53,4.13-93.28,10.56-27.58,8.56-43.62,19.31-69.09,11.83-25.21-7.41-42.87-28.04-47.35-33.25-13.35-15.51-20.9-35.54-35.45-74.96-13.05-35.35-10.61-35.49-16.68-44.17-20.27-28.99-60.98-46.72-90.73-40.7-16.04,3.25-17.28,10.62-31.75,17.64-34.15,16.57-81.06-5.25-103.4-15.63-100.33-46.65-145.39-192.94-147.44-199.88"></path><path class="cls-10" d="M1492.56,46.66c-7.38,5.69-36.59,26.52-81.73,19.02-11.35-1.89-43.07-7.16-68.88-32.53-22.72-22.34-18.68-38.44-44.4-58.77-12.85-10.16-25.5-15.33-45.16-23.37-18.12-7.41-31.5-10.74-43.81-13.74-29.71-7.25-45.36-10.86-53.04-2.38-3.58,3.96-4.63,9.67-10.06,10.01-4.47,.28-8.99-3.27-14.08-8.1-6.85-6.5-16.69-17.17-26.48-33.39"></path><path class="cls-10" d="M1230.17,73.35c2.15-4.9-12.61-21.7-18.31-20.12-2.66,.74-3.01,5.38-2.64,8.1,.78,5.69,5.71,10.19,10,12.1,3.82,1.7,9.8,2.54,10.95-.09Z"></path><path class="cls-10" d="M1346.19,162.9c.64-7.92-2.98-14.63-4.29-16.99-7.94-14.29-22.98-18.97-26.67-20.12-4.97-1.55-15.31-3.83-16.32-.56-1.05,3.39,9.33,8.38,20.04,22,12.76,16.23,13.74,29.15,19.15,29.76,4.52,.51,7.62-8.07,8.11-14.09Z"></path><path class="cls-10" d="M1342.3,208.9c1.54-.44,.11-6.68-.45-9.1-3.03-13.13-11.37-26.65-13.89-26.07-2.14,.49-.32,11.22,3.35,19.79,3.34,7.79,9.12,15.92,10.99,15.39Z"></path><path class="cls-10" d="M1149.78,16.05c-2.51,.8-8.51-7.3-11.18-11.51-7.23-11.43-7.56-22.23-7.65-27.38-.13-7.55-.34-19.98,6.66-21.78,3.67-.95,9.17,1.08,11.79,4.86,3.87,5.59-1.34,10.98-2.66,23.3-1.91,17.77,6.24,31.49,3.04,32.51Z"></path><path class="cls-10" d="M1315.1,36.4c4.76-13.9-11.74-32.91-20-42.45-32.32-37.27-79.8-50.42-81.91-44.95-1.75,4.54,30.11,15.71,50.42,51.38,13.48,23.68,12.05,40.88,24.31,46.72,10.08,4.8,23.78-.76,27.19-10.71Z"></path><path class="cls-10" d="M1123.66,107.84c-2.24,6.01-47.82-15.53-81.7-37.91-14.04-9.27-23.68-17.12-26.53-27.72-3.53-13.13,6.75-17.82,2.48-31.17-5.29-16.57-26.7-26.81-29.35-28.04-11.14-5.18-13.69-2.1-20.61-6.36-20.57-12.67-24.85-56.33-19.4-57.39,3.46-.67,7.4,16.47,26.6,36.84,18.1,19.21,27.6,17.77,45.89,33.71,23.25,20.27,19,32.27,42.95,62.82,30.41,38.8,61.5,50.34,59.68,55.22Z"></path><path class="cls-10" d="M1004.03,16.2c-.35-7.89,.09-8.29-.44-10.21-2.82-10.21-21.24-20-24.46-16.6-4.75,5.02,21.61,40.9,25.36,39.5,.87-.32,0-2.44-.47-12.7Z"></path><path class="cls-10" d="M1055.45,67.73c-3.03,3.3-24.17-6.61-28.85-21.7-1.8-5.81-1.51-13.47,1.85-14.43,5.12-1.46,15.82,13.16,20.4,20.51,3.79,6.08,8.48,13.58,6.6,15.62Z"></path><path class="cls-10" d="M1304.19,35.7c3.9-5.28,1.77-12.37,1.28-13.86-3.48-10.58-16.22-18.88-21.45-16.61-7.39,3.21-4.05,29.37,6.08,34.43,4.66,2.33,10.96,.29,14.1-3.97Z"></path><path class="cls-10" d="M1294.76,27.72c2.72-1.63,2.71-6.96-.42-9.75-2.28-2.03-5.82-2.35-7.6-.48-2.25,2.37-.75,7.32,2.28,9.5,1.74,1.25,4.12,1.7,5.74,.73Z"></path><path class="cls-10" d="M1515.59,299.87c-16.62,5.85-40.93,13.33-71.56,18.96-48.93,9-73.84,13.2-95.5-1.8-4.74-3.28-15.64-11.86-38.26-71.13-29.17-76.42-26.81-103.44-53.19-124.25-12.95-10.22-33.08-19.12-47.9-13.33-16.51,6.45-19.18,28.31-19.79,33.27-4.68,38.29,27.59,67.56,19.22,79.5-2.41,3.44-12.17,11.12-73.1-18.57-70.76-34.49-107.32-49.46-134.97-87.82-24.52-34.02-15.47-47.77-42.07-103.45-21.99-46.05-49.17-80.59-69.06-102.88"></path><path class="cls-10" d="M1180.71,197.14c7.22-7.28-2.02-34.98-19.7-49.92-21.64-18.29-38.42-2.66-73.68-14.13-51.93-16.9-83.53-72.92-91.78-67.42-4.57,3.05,3.67,21.2,4.16,22.25,12.64,27.44,49.02,47.17,121.27,85.51,36.37,19.3,54.65,28.84,59.74,23.72Z"></path><path class="cls-10" d="M1303.27,300.84c.03-30.99-3.47-115.39-54.19-158.76-5.35-4.58-28.11-24.04-40.11-18.29-14.84,7.11-3.17,47.96-2.22,51.2,8.12,27.6,25.56,47.05,34.81,56.19"></path><path class="cls-10" d="M1022.72,165.08c-22.97-6.22-52.42-18.37-71.01-44.48-11.81-16.58-11.37-27.73-21.81-45.29-10.79-18.13-31.8-40.75-76.93-58.79"></path><path class="cls-10" d="M1251.3,177.94c2.74-7.63-4.61-17.56-9.19-23.74-2.17-2.94-14.58-19.14-22.83-16.93-5.13,1.38-6.01,9.16-6.47,13.2-.3,2.61-2.55,22.4,10.89,31.42,10.03,6.73,24.53,4.6,27.6-3.96Z"></path><path class="cls-10" d="M1240.19,174.99c.43-.47,.01-3.53-.83-9.64-.17-1.21-.25-1.82-.37-2.56-.7-4.32-1.13-6.95-2.31-9.51-.72-1.57-2.49-5.41-5.09-6.46-4.88-1.97-13.69,5.47-12.06,13.94,1.99,10.33,18.44,16.64,20.67,14.24Z"></path><path class="cls-10" d="M1235.06,162.45c.62-.49,.03-2.44-1.14-6.32-.84-2.79-1.28-4.19-2.07-4.63-1.91-1.06-5.75,1.32-5.57,4.33,.23,3.96,7.36,7.76,8.78,6.62Z"></path><path class="cls-10" d="M1286.29,269.63c-7.07-13.34-1.72-24.52-3.2-34.41-2.43-16.27-8.52-28.88-14.32-32.71-3.09-2.04-5.01,.6-14.92,1.05-11.79,.53-16.87-2.86-18.14-.5-2.23,4.13,12.86,15.49,24.32,35.39,6.55,11.38,9.72,21.75,11.38,28.92"></path><path class="cls-10" d="M1262.58,206.39c-2.2-.89-3.31,1.2-9.37,1.32-6.21,.13-9.52-1.97-10.1-.77-.89,1.86,6.93,7.1,14.17,16.75,8.55,11.41,9.2,19.55,11.04,19.53,3.75-.04,2.19-33.64-5.74-36.84Z"></path><path class="cls-10" d="M917.35-12.98c-8.87-.33-17.1,6.19-18.16,14.7-1.26,10.11,8.31,17.41,21.65,36.31,25.54,36.19,26.87,61.04,40.25,63.61,5.15,.99,11.15-1.51,13.05-5.96,2.05-4.82-1.05-11.15-2.27-13.74-14.68-31.19-6.63-49.35-27.7-75.35-6.24-7.7-15.51-19.14-26.81-19.56Z"></path><path class="cls-10" d="M1006.1,139.66c1.47-3.22-5.43-6.86-15.46-24.91-2.18-3.92-4.16-7.9-7.46-8.87-3.21-.94-4.46,1.9-9.19,3.35-7.91,2.42-13.98-2.61-15.48-.31-1.99,3.04,6.2,15.54,17.49,23.46,12.07,8.47,27.99,11.89,30.1,7.29Z"></path><path class="cls-10" d="M991.08,129.66c2.03-2.09-2.31-11.63-6.81-13.04-1.89-.59-2.56,.64-6.56,1.05-4.94,.5-7.69-1.01-7.9-.29-.56,1.91,18.16,15.48,21.28,12.28Z"></path><path class="cls-10" d="M960.01,92.69c2.63,.66,5.73-1.29,6.73-3.82,1.4-3.55-1.32-8.34-2.22-10.01-8.96-16.58-1.99-27.33-14-50.11-4.05-7.69-8.97-16.74-18.46-21.36-5.67-2.76-14.58-4.71-16.57-1.11-3.05,5.52,14.14,16.85,26.47,41.54,11.77,23.58,10.99,43.09,18.06,44.86Z"></path></g></g><path class="cls-19" d="M278.91,670.87c-12.16-5.02-12.57-20.01-27.06-23.5-10.98-2.65-22.8,2.09-31.21,6.63-4.55-6.51-13.24-17.03-26.85-23.81-25.67-12.78-49.36-2.54-55.06,.14,2.37-5.47,6.1-16.26,2.47-24.36-5.34-11.92-25.95-16.53-48.91-3.05-.37-6.26-1.8-14.37-6.65-20.67-14.19-18.45-46.98-7.59-64.33,3.36-22.15,13.99-33.15,37-37.89,49.11,0,66.83,0,133.66,0,200.49,229.43,.2,458.87,.39,688.3,.59-1.6-41.35-12.75-59.57-22.94-68.52-21.92-19.27-43.38,.87-73.27-19.19-25.14-16.88-23.3-40.07-45.82-50.63-20.72-9.72-43.51-.04-59.79,9.93-1.33-20.35-12.18-38.14-27.99-45.92-15.64-7.69-33.66-4.37-46.65,8.58-25.06-22.42-43.9-25.06-56.81-22.94-26.83,4.43-40.58,31.58-59.54,23.75Z"></path><path class="cls-20" d="M1065.94,593.71c16.28-6.91,16.84-27.54,36.24-32.35,14.7-3.64,30.53,2.88,41.8,9.13,6.1-8.96,17.73-23.45,35.96-32.78,34.38-17.59,66.11-3.5,73.74,.19-3.17-7.53-8.16-22.38-3.31-33.53,7.15-16.42,34.75-22.76,65.51-4.19,.49-8.62,2.41-19.78,8.9-28.46,19.01-25.4,62.92-10.45,86.15,4.63,29.66,19.26,44.4,50.94,50.75,67.62,0,92.01,0,184.01,0,276.02-307.28,.27-614.56,.54-921.85,.81,25.04-33.57,67.11-81.83,128.85-120.76,55.54-35.02,106.44-49.53,141.44-56.04,1.78-28.01,16.31-52.51,37.49-63.22,20.94-10.59,45.08-6.02,62.49,11.81,33.56-30.86,58.8-34.51,76.08-31.58,35.93,6.09,54.35,43.47,79.74,32.7Z"></path><path class="cls-5" d="M1186.46,413.27c22.83-3.53,39.67,9.38,44.78,13.66-.24-.98-1.86-8.08,3.62-12.84,6.04-5.24,18.55-5.78,28.27,.48-.13-1.46-.74-10.65,7.49-16.81,8.71-6.52,23.79-7.01,35.73-.23,1.11-3.54,3.84-9.88,10.95-14.97,11.14-7.97,28.38-9.56,44.38-4.38-12.61-9.48-13.46-14.92-12.29-18.04,4.08-10.91,41.69-16.91,67.91-5.22,11.27,5.03,17.87,12.18,21.16,16.35,.62,76.85,1.24,191.01,1.86,267.86-228.85-.29-457.7-.58-686.55-.87,7.49-45.74,21.44-66.67,33.65-77.2,38.3-33.03,96.45,4.5,111.89-30.57,5.39-12.26,3.12-27.81,10.68-31.96,7.07-3.87,16.51,5.62,23.75,14.9,12.13-25.84,32.12-40.56,51.84-37.53,14.87,2.29,25.01,13.98,29.18,19.45,7.68-.26,18.6-2.05,29.93-9.75,16.87-11.47,21.89-27.37,32.1-38.39,11.06-11.93,30.7-20.82,68.35-7.17,4.33-5.74,18.66-23.27,41.35-26.78Z"></path><path class="cls-21" d="M1371.42,37.94c.41,40.36,.82,80.71,1.24,121.07-69.64,62.19-174,133.09-302.67,133.42-78.77,.2-91.45-26.23-160.6-19.77-161.56,15.11-174.79,180.59-331.08,201.37-152.45,20.26-261.32-84.57-321.2-28.41-48,45.02,3.62,129.59-49.42,193.95-45.26,54.93-134.36,55.84-197.91,49.44,48.6-27.71,108.49-73.02,139.84-145.8,38.31-88.93,5.6-146.9,48.18-187.78,51.82-49.75,119.4,19.04,260.67-4.94,15.97-2.71,200.39-36.59,291.55-177.89,32.21-49.93,31.51-80.31,63-91.42,73.49-25.92,134.27,119.45,232.25,108.71,88.86-9.73,105.27-136.58,224.84-159.36,41.06-7.82,77.34-.14,101.3,7.41Z"></path><g class="cls-15"><g class="cls-6"><path class="cls-10" d="M473.65,58.48c-25.29,3-70.2-2.91-80.01,4.8-15.05,11.83-15.53,20.53-36.08,42.6-12.6,13.53-23.62,25.37-39.99,34.34-33.89,18.57-50.01,2.55-69.99,19.13-18.9,15.68-7.5,32.51-30,66.51-11.17,16.88-24.58,39.24-46.95,40.86-14.88,1.08-30.11-7.13-38.52-18.39-10-13.39-9.64-30.1-9.56-33.47,.3-13.75,5.57-23.06,1.57-25.96-3.42-2.48-10.48,2.02-12.17,3.04-13.22,8-16.58,24.1-17.39,28.26-4.89,25.2,10.33,36.3,2.61,49.12-5.24,8.7-13.86,6.25-26.08,14.35-9.44,6.25-20.62,18.52-26.52,45.21"></path><path class="cls-10" d="M28.04,330.64c11.23-40.22,25.76-53.46,37.39-57.82,4.31-1.62,13.3-3.91,17.39-11.74,3.75-7.16,.65-13.72-.87-23.04-2.74-16.77,.09-39.62,12.61-53.04,8.47-9.07,24.09-16.74,33.91-11.74,7.95,4.05,5.82,13.21,16.95,35.21,6.8,13.44,12.01,23.44,20,24.34,5.13,.58,10.65-2.67,22.17-16.95,20.3-25.16,20.52-36.58,33.47-52.17,13.87-16.7,30.63-24.09,43.04-29.56,32.66-14.4,42.78-3.72,64.77-17.82,12.51-8.02,20.51-20.42,36.52-45.21,19.47-30.17,18.18-37.87,30.87-49.99,9.4-8.99,63.47,4.78,85.22-8.28"></path><path class="cls-10" d="M9.79,328.9c9.35-14.48,21.21-34.39,33.04-59.12,8.53-17.84,15.47-32.37,22.61-53.04,12.87-37.3,11.19-50.68,26.08-64.34,2.35-2.15,19.2-17.62,35.21-13.04,20.15,5.76,27.9,40.06,28.26,41.73,2.7,12.57,1.55,24.04,6.09,25.21,2.53,.65,5.34-2.29,8.69-6.09,9.6-10.86,14.39-16.28,20.87-26.95,8.55-14.1,20.13-21.55,33.91-30.43,16.59-10.69,19.31-6.64,49.99-20.43,33.44-15.03,39.88-24.18,42.17-27.82,7.73-12.3,8.07-25.22,8.26-32.6,.61-23.42-9.72-29.63-8.69-54.77,.44-10.82,.77-18.82,6.09-26.08,2.35-3.21,11.83-14.69,56.08-14.35,18.13,.14,73.4,17.04,104.35,26.5"></path><path class="cls-10" d="M488.43-25.85c-29.65,6.3-81.01-10.97-95.66-14.32-21.26-4.87-29.62-12.2-49.56-11.3-14.14,.64-40.75,5.71-45.65,20.87-3.69,11.43,8.63,17.26,14.78,47.82,1.39,6.91,1.94,13.3,3.04,26.08,1.78,20.68,2.67,31.02,.43,37.39-3.23,9.17-10.56,15.13-37.82,28.26-49.03,23.61-54.31,18.29-71.29,31.73-25.58,20.25-31.95,46.82-39.99,44.34-8.41-2.59,.24-31.12-16.52-45.65-10.03-8.7-23.91-7.81-30.43-7.39-40.63,2.6-66.55,46.38-69.12,50.86-15,26.14-8.62,38.35-22.17,80.86-8.51,26.69-19.16,47.38-26.95,60.86"></path><path class="cls-10" d="M495.39-44.98c-21.74,13.73-68.1,.92-80.01,.02-32.26-2.44-50.29-27.67-76.51-19.13-4.91,1.6-9.79,4.4-19.56,10-16.28,9.33-24.42,14-27.39,20.43-3.58,7.77,.87,11.99,10.43,43.04,5.84,18.96,8.51,31.45,9.56,44.78,.99,12.42,1.42,18.95-2.17,25.65-5.04,9.41-14.51,12.64-33.91,18.69-43.77,13.66-56.36,16.16-79.99,23.91-22.21,7.28-22,8.64-29.56,9.13-26.61,1.72-37.28-14.64-58.69-14.35-21.53,.3-37.43,17.22-47.38,27.82-26.01,27.68-23.23,53.81-43.91,110.42-9.24,25.3-19.03,45.34-26.08,58.69"></path><path class="cls-10" d="M498.86-65.85c-34.4,9.28-91.23-5.41-110.87-7.37-33.13-3.3-48.68-12.88-70.86-3.48-16.31,6.92-33.4,22.91-35.65,41.73-.67,5.58,.68,5.7,14.35,46.08,6.27,18.52,9.75,29.62,9.05,44.55-.37,7.84-.62,13.16-3.4,18.92-5.52,11.39-17.59,17.05-50.43,25.65-37.66,9.86-56.49,14.79-81.73,13.91-37.15-1.3-36.97-11.98-60.43-9.13-47.06,5.71-77.51,52.3-81.29,58.25-18.16,28.61-9.28,39.37-30.87,66.51-15.31,19.25-25.29,20.76-39.99,39.99-16.1,21.06-22.39,43.13-25.21,57.82"></path><path class="cls-10" d="M507.71-83.34c-45.94,3.67-81.48-1.8-106.07-7.83-32.7-8.01-53.15-18.73-79.55-10-26.14,8.65-40.65,30.9-44.34,36.52-10.99,16.73-14.43,38-20.87,79.84-5.77,37.52-3.03,37.59-7.63,46.9-15.35,31.1-56.15,51.12-90.62,45.84-18.59-2.85-21.78-10.53-39.56-17.39-41.97-16.18-88.63,8.33-110.85,20-99.81,52.42-113.76,207.41-114.33,214.75"></path><path class="cls-10" d="M486.41,156.62c-9.58-5.71-47.12-26.54-95.35-17.1-12.13,2.37-46.02,9.01-68.4,36.52-19.7,24.22-11.25,40.97-34.78,63.18-11.76,11.1-24.51,16.97-44.34,26.08-18.27,8.4-32.3,12.36-45.21,15.94-31.17,8.64-47.65,12.97-58.25,4.35-4.95-4.02-7.52-9.98-13.62-10.14-5.03-.14-9.16,3.74-13.62,8.98-6,7.06-14.29,18.59-21.16,35.94"></path><path class="cls-10" d="M424.39-13.79c-25.93,1.84-45.56,1.59-59.7,.87-7.71-.39-18.1-1.15-26.08,5.51-6.84,5.71-8.61,14.1-9.85,20-2.33,11.06-2.57,29.59,4.35,32.17,7.1,2.64,14.87-14.1,32.17-26.95C384.97,3.16,408.48-.07,428.44,.41"></path><path class="cls-10" d="M358.02,46.2c-2.96-2.53-11.95,3.77-12.75,4.35-1.79,1.28-6.78,5.13-10.14,12.46-2.62,5.7-5.53,16.27-2.32,18.26,3.78,2.34,15.32-7.68,21.45-18.84,2.43-4.43,6.62-13.8,3.77-16.23Z"></path><path class="cls-10" d="M188.77,137.78c3.6,5.07-8.64,23.2-15.36,21.74-3.13-.68-4.67-5.54-4.93-8.4-.54-5.99,3.82-10.89,8.11-13.04,3.82-1.92,10.25-3,12.17-.29Z"></path><path class="cls-10" d="M295.42,39.83c2.67,8.29,.3,15.44-.58,17.97-5.29,15.26-20.82,20.69-24.63,22.03-5.13,1.79-16.04,4.55-17.97,1.16-2-3.52,8.29-9.11,16.81-23.76,10.16-17.46,8.06-31.05,13.91-31.88,4.88-.7,10.44,8.2,12.46,14.49Z"></path><path class="cls-10" d="M279.77-8.28c1.82,.41,1.76,7,1.74,9.56-.12,13.87-6.05,28.34-8.98,27.82-2.49-.44-3.12-11.76-1.16-20.87,1.78-8.28,6.2-17.02,8.4-16.52Z"></path><path class="cls-10" d="M113.71,200.67c-2.98-.75-7.65,7.96-9.56,12.46-5.21,12.24-2.91,23.58-1.74,28.98,1.72,7.92,4.55,20.96,12.75,22.61,4.31,.86,9.91-1.45,11.88-5.51,2.92-5.99-4.19-11.47-8.69-24.34-6.5-18.57-.83-33.24-4.64-34.2Z"></path><path class="cls-10" d="M108.2,225.31c.31-.09,.57,.29,6.67,11.59,4.93,9.15,7.37,13.8,6.38,17.39-.71,2.57-2.83,5.92-4.93,5.8-6.49-.39-10.85-34-8.11-34.78Z"></path><path class="cls-10" d="M118.12,248.78c2.03,1.93,.64,5.74-.58,6.01-1.6,.36-4.9-4.87-3.77-6.45,.67-.93,3.04-.81,4.35,.43Z"></path><path class="cls-10" d="M292.09,173.58c8.7,14.41-4.91,34.92-11.74,45.21-26.67,40.21-76.1,55.66-79.8,49.99-3.06-4.7,29.53-17.52,43.28-55.64,9.13-25.3,3.3-43.3,15.46-49.85,10-5.39,26.57-.03,32.8,10.29Z"></path><path class="cls-10" d="M62.12,105.33c-3.96-6.22-49.22,17.95-81.29,42.6-13.29,10.21-22.05,18.78-22.61,30-.68,13.89,11.88,18.45,10.43,32.6-1.79,17.57-23.02,29.05-25.65,30.43-11.09,5.82-14.67,2.68-21.3,7.39-19.7,14-13.69,59.94-7.39,60.86,4,.58,4.15-17.53,20.43-39.56,15.35-20.78,26.24-19.6,42.6-36.95C-1.85,210.64-9.52,198.19,9.52,165.32c24.18-41.75,55.82-54.94,52.6-59.99Z"></path><path class="cls-10" d="M280.15,174.69c5.62,5.4,5.01,12.91,4.83,14.49-1.25,11.22-13.34,20.37-19.71,18.16-8.99-3.11-11.72-30.66-1.74-36.32,4.6-2.61,12.08-.69,16.62,3.67Z"></path><path class="cls-10" d="M271.65,183.38c3.41,1.61,4.72,7.2,1.93,10.24-2.03,2.21-5.88,2.67-8.31,.77-3.08-2.41-2.64-7.65,.19-10.05,1.62-1.37,4.16-1.92,6.18-.97Z"></path><path class="cls-10" d="M449.6-109.72c-19.87-5.55-48.69-12.55-84.05-17.39-56.5-7.73-85.16-11.27-105.49,5.22-4.45,3.61-14.43,12.98-24.92,75.93-13.54,81.16-4.26,109.42-28.4,132.16-11.85,11.17-31.98,21.21-49.85,15.65-19.9-6.19-28.25-29.02-30.14-34.2-14.62-40,13.96-71.81,1.74-84.05-3.52-3.52-16.24-11.24-76.51,22.03C-18.02,44.27-54.9,61.23-76.12,102.43c-18.83,36.53-5.4,50.64-21.18,109.96-13.05,49.06-34.7,86.23-51.27,110.3"></path><path class="cls-10" d="M103.42,9.69c9.8,7.38,6.37,36.75-9.56,53.04-19.5,19.93-41.96,4.12-78.25,17.39-53.44,19.53-74.7,79.39-85.21,73.9-5.82-3.04-1.15-22.36-.87-23.47,7.26-29.22,42.76-51.18,113.46-93.9C78.58,15.13,96.52,4.49,103.42,9.69Z"></path><path class="cls-10" d="M213.84-103.34c7.66,32.5,24.56,121.13-21.01,168.38-4.81,4.98-25.26,26.19-39.99,20.58-18.22-6.94-15.33-50.19-15.07-53.62,2.21-29.22,16.77-50.23,24.78-60.14"></path><text class="cls-4" transform="translate(58.57 238.52) rotate(-180) scale(1 -1)"><tspan x="0" y="0">TK 177</tspan></text><path class="cls-10" d="M421.2,80.11c-22.52,2.46-32.2,10-36.81,16.81-3.59,5.31-4.39,10.62-11.01,15.36-5.59,4-10.73,4.29-15.94,10.43-2.06,2.43-4.7,5.54-3.77,7.83,1.98,4.84,19.8,5.6,28.4-3.19,4.14-4.23,3.42-7.9,5.8-11.59,4.26-6.63,17.05-11.1,53.33-3.19"></path><path class="cls-10" d="M425.54,90.26c-11.7-2-20.65-.51-22.32,3.77-.85,2.17,.08,5.35,2.03,6.96,2.82,2.32,7.06,.79,12.46-.29,4.54-.91,11.07-1.73,19.42-1.16"></path><path class="cls-10" d="M186.45,27.37c4.91,7.9-.79,18.57-4.35,25.21-1.69,3.16-11.46,20.58-21.16,18.55-6.03-1.26-8.93-9.39-10.43-13.62-.97-2.72-8.34-23.4,4.35-33.33,9.47-7.41,26.08-5.68,31.59,3.19Z"></path><path class="cls-10" d="M174.86,30.84c.6,.48,.88,3.7,1.45,10.14,.11,1.28,.17,1.91,.22,2.7,.29,4.56,.46,7.32-.22,10.06-.41,1.67-1.43,5.76-4.06,6.96-4.93,2.24-16.54-5.26-16.81-14.2-.33-10.9,16.36-18.09,19.42-15.65Z"></path><path class="cls-10" d="M172.25,44.17c.81,.5,.63,2.55,.29,6.67-.25,2.95-.39,4.44-1.16,4.93-1.86,1.18-6.7-1.19-7.25-4.35-.72-4.16,6.25-8.39,8.11-7.25Z"></path><path class="cls-10" d="M202.68-70.01c-4.56,14.24,4.13,25.77,4.93,36.2,1.31,17.15-2.34,30.58-7.82,34.8-2.92,2.25-5.71-.46-16.81-.58-13.21-.15-18.01,3.58-20,1.16-3.49-4.25,10.45-16.69,18.26-37.97,4.46-12.16,5.42-23.14,5.51-30.72"></path><path class="cls-3" d="M60.9,234.06c0,4.84,7.95,14.86,8.76,14.86s8.76-10.02,8.76-14.86c0-4.84-3.92-8.76-8.76-8.76-4.84,0-8.76,3.92-8.76,8.76Zm5.18,0c0-1.97,1.6-3.58,3.58-3.58s3.58,1.6,3.58,3.58-1.6,3.58-3.58,3.58-3.58-1.6-3.58-3.58Z"></path><g><polyline class="cls-11" points="81.97 282.21 78.41 287.04 72.41 287.04"></polyline><line class="cls-12" x1="59.38" y1="287.04" x2="-12.31" y2="287.04"></line><polyline class="cls-9" points="-24.83 269.01 -24.83 211.21 61.58 116"></polyline><polyline class="cls-11" points="65.62 111.55 69.65 107.11 75.65 107.11"></polyline><line class="cls-13" x1="85.37" y1="107.11" x2="99.95" y2="107.11"></line><polyline class="cls-11" points="104.81 107.11 110.81 107.11 110.81 113.11"></polyline><polyline class="cls-8" points="110.81 125.01 110.81 243.03 85.5 277.41"></polyline></g><path class="cls-10" d="M440.36,99.95c1.88,.18,3.89,.44,6,.82,2.89,.51,5.53,1.16,7.9,1.85"></path><path class="cls-10" d="M457.39,103.64c.88,.24,1.85,.59,2.87,1.08,.38,.18,.74,.37,1.08,.56"></path><path class="cls-10" d="M426.52,79.54c1.37-.06,2.83-.09,4.36-.05,2.55,.06,4.9,.27,7.03,.56"></path><path class="cls-10" d="M444.02,81.18c.55,.08,1.19,.22,1.9,.45,1,.34,1.8,.78,2.39,1.17"></path><path class="cls-10" d="M488.27,157.89c.55,.3,1.22,.73,1.91,1.33,.74,.64,1.28,1.29,1.66,1.82"></path><path class="cls-10" d="M447.49,114.21c1.07,.08,2.5,.3,4.1,.87,1.47,.52,2.64,1.18,3.49,1.74"></path><path class="cls-10" d="M478.8,57.35c.9-.28,1.84-.62,2.81-1.04,3.47-1.48,6.16-3.41,8.15-5.15"></path><path class="cls-10" d="M493.19,47.04c.17-.27,.35-.6,.5-1,.25-.66,.33-1.26,.35-1.69"></path><path class="cls-10" d="M90.52,323.49c-.75,1.42-1.54,3.14-2.21,5.13-.87,2.59-1.31,4.94-1.54,6.87"></path><path class="cls-10" d="M86.47,338.31c-.01,.4-.02,.83,0,1.28,.01,.3,.03,.59,.05,.87"></path><path class="cls-10" d="M27.22,334.69c-.17,1.03-.31,2.16-.38,3.38-.09,1.52-.08,2.91,0,4.15"></path><path class="cls-10" d="M411.08,158.56c-4.4-.43-10.33-.52-17.13,.82-11.29,2.23-19.4,7.32-23.9,10.67"></path><path class="cls-10" d="M364.72,174.36c-1.35,1.47-2.95,3.48-4.41,6.05-1.58,2.78-2.51,5.36-3.08,7.38"></path><path class="cls-10" d="M416.01,159.59c1.02,.23,2.36,.65,3.79,1.44,1.89,1.03,3.2,2.28,4,3.18"></path><path class="cls-10" d="M424.86,165.97c.08,.14,.16,.3,.23,.49,.1,.24,.16,.46,.21,.65"></path><path class="cls-10" d="M277.95,270.77c-5.34,4.75-12.53,10.17-21.74,14.87-17.5,8.93-33.84,10.91-43.9,11.28"></path><path class="cls-10" d="M201.65,296.62c-2.09-.2-4.43-.3-6.97-.21-5.08,.2-9.43,1.13-12.82,2.15"></path><path class="cls-10" d="M176.31,300.31c-.47,.1-1.72,.41-2.77,1.54-.81,.86-1.11,1.79-1.23,2.26"></path></g></g><rect class="cls-16" x="1.53" width="1364.47" height="51.15"></rect><path class="cls-2" d="M1399.44,127.93c-.17,54.27-.35,108.53-.52,162.8-154.09-27.17-259.66-1.12-328.62,28.97-120.43,52.54-143.18,123.48-281.85,177.23-119.02,46.13-173.16,21.35-264.62,43.08-109.69,26.06-252.5,114.13-387.69,393.85,91.68-323.62,222.31-433.51,327.38-472.62,93.18-34.68,155.06-9.51,275.69-71.38,138.77-71.18,151.46-152.98,262.15-219.08,75.56-45.12,197.62-83.41,398.06-42.84Z"></path></g></g><path class="cls-14" d="M1366,706.65v97.94H.77v-75.36c164.64,11.93,299.94,10.46,394.61,6.71,249.79-9.87,357.97-41.17,593.23-46.15,159.32-3.37,290.24,7.16,377.39,16.86Z"></path></svg> 