<!--?xml version="1.0" standalone="no"?-->              <svg id="sw-js-blob-svg" viewBox="0 0 100 100" xmlns="http://www.w3.org/2000/svg" version="1.1">                    <defs>                         <linearGradient id="sw-gradient" x1="0" x2="1" y1="1" y2="0">                            <stop id="stop1" stop-color="rgba(67.939, 248, 55, 1)" offset="0%"></stop>                            <stop id="stop2" stop-color="rgba(83.138, 83.138, 83.138, 1)" offset="100%"></stop>                        </linearGradient>                    </defs>                <path fill="url(#sw-gradient)" d="M22.5,-26.8C30.5,-20.1,39.4,-14.3,40.5,-7.3C41.5,-0.3,34.8,8,29.3,16.5C23.9,25.1,19.7,33.9,13.3,36C6.9,38,-1.8,33.3,-9.4,29.1C-17,24.9,-23.6,21.2,-27.9,15.3C-32.2,9.5,-34.2,1.6,-34.3,-7.5C-34.4,-16.6,-32.7,-26.8,-26.7,-33.8C-20.7,-40.9,-10.3,-44.9,-1.6,-43C7.2,-41.2,14.5,-33.5,22.5,-26.8Z" width="100%" height="100%" transform="translate(50 50)" stroke-width="0" style="transition: 0.3s;"></path></svg>