<svg width="340" height="340" viewBox="0 0 340 340" fill="none" xmlns="http://www.w3.org/2000/svg">
<path d="M254.919 254.919C301.848 207.99 301.848 131.903 254.919 84.9733C207.99 38.044 131.902 38.044 84.973 84.9733C38.0437 131.903 38.0437 207.99 84.973 254.919C131.902 301.849 207.99 301.849 254.919 254.919Z" fill="url(#paint0_linear_2006_5106)"/>
<path d="M209.909 157.008C209.909 157.008 215.189 159.338 216.549 161.978C217.909 164.628 226.429 159.238 228.229 164.448C230.029 169.658 234.419 164.338 235.519 172.228C236.609 180.118 230.369 183.198 237.499 187.758C244.629 192.318 254.429 202.628 256.759 212.008C259.089 221.388 268.119 242.388 261.589 243.618C255.059 244.838 256.319 236.248 251.089 233.468C245.849 230.688 247.969 227.678 244.799 222.338C241.629 216.998 228.119 221.918 223.659 220.588C219.199 219.258 212.949 224.858 201.309 221.928C189.669 219.008 188.659 212.728 181.309 210.438C173.969 208.148 173.229 203.728 185.069 194.758C196.909 185.788 191.249 170.368 200.019 164.778C208.789 159.188 201.189 159.618 209.909 156.998V157.008Z" fill="#8BD2A0"/>
<path d="M202.679 154.498C202.679 154.498 194.099 160.298 192.279 164.428C190.459 168.558 186.489 171.058 185.639 169.398C184.789 167.738 183.309 168.178 185.079 164.608C186.849 161.038 186.459 160.578 188.329 157.448C190.199 154.318 190.309 153.188 194.659 152.728C199.009 152.278 202.109 151.278 202.399 152.878L202.679 154.478V154.498Z" fill="#8BD2A0"/>
<path d="M206.809 139.528C206.809 139.528 203.879 143.268 202.479 142.858C201.079 142.438 198.579 141.628 198.699 143.368C198.819 145.098 201.409 146.638 202.519 147.028C203.629 147.418 207.629 150.668 208.159 148.128C208.679 145.598 212.829 144.258 211.589 142.138C210.349 140.018 207.719 139.048 206.809 139.538V139.528Z" fill="#8BD2A0"/>
<path d="M151.93 220.858C151.93 220.858 147.12 224.618 146.83 229.048C146.54 233.478 141.89 235.568 145.86 240.638C149.84 245.708 153.03 255.398 154.77 252.188C156.52 248.978 153.09 246.978 154.17 240.578C155.25 234.178 153.95 235.258 155.67 230.968C157.4 226.678 158.47 222.928 156.39 222.008C154.31 221.088 151.92 220.868 151.92 220.868L151.93 220.858Z" fill="#8BD2A0"/>
<path d="M162.048 232.288C161.128 235.688 161.348 243.658 163.078 244.428C164.808 245.188 170.958 245.168 173.068 243.198C175.178 241.228 179.638 237.308 174.998 235.438C170.358 233.558 166.298 234.498 164.658 231.458C163.018 228.418 162.048 232.298 162.048 232.298V232.288Z" fill="#8BD2A0"/>
<path d="M245.009 168.478C243.919 165.718 239.719 167.318 240.639 170.138C241.399 172.478 241.899 175.538 241.009 178.648C239.139 185.168 250.139 191.748 252.589 194.698C255.039 197.648 259.659 190.758 254.099 186.368C248.539 181.978 246.149 183.008 246.189 175.898C246.199 173.128 245.799 170.488 245.009 168.488V168.478Z" fill="#8BD2A0"/>
<path d="M243.29 161.968C242.23 162.198 241.14 162.248 240.07 162.058C238.65 161.808 236.85 161.338 235.5 160.498C232.9 158.878 239.73 157.628 242.41 155.558C245.1 153.488 249.72 153.748 250.98 157.738C252.02 161.018 245.71 161.458 243.29 161.978V161.968Z" fill="#8BD2A0"/>
<path d="M101.148 162.098C101.148 162.098 105.008 169.918 108.818 170.348C112.628 170.778 113.078 172.728 114.938 171.538C116.798 170.348 120.298 168.978 115.908 164.368C111.518 159.758 115.258 155.158 108.328 157.008C101.398 158.858 101.978 156.978 101.158 162.098H101.148Z" fill="#8BD2A0"/>
<path d="M244.039 249.928C244.039 249.928 245.489 245.608 243.849 242.738C242.209 239.868 244.249 236.648 239.689 235.128C235.129 233.608 229.169 228.878 229.399 231.598C229.629 234.308 232.589 234.158 234.539 238.588C236.489 243.018 236.859 241.808 237.549 245.188C238.239 248.568 239.109 251.348 240.779 251.058C242.449 250.778 244.029 249.938 244.029 249.938L244.039 249.928Z" fill="#8BD2A0"/>
<path d="M49.8899 164.798C55.0399 159.398 61.8899 153.778 67.1099 155.548C76.4299 158.708 87.5099 155.398 91.7999 158.548C96.0899 161.698 91.0599 171.308 87.0499 175.058C83.0299 178.808 82.8999 182.688 88.8999 179.808C94.8999 176.938 96.7699 171.608 102.09 173.488C107.41 175.358 108.26 180.938 112.23 180.168C116.2 179.398 122.68 178.628 123.67 180.328C124.66 182.028 126.99 188.888 112.99 189.178C98.9899 189.468 98.2699 194.668 99.1699 197.278C100.07 199.878 97.84 201.738 94.0299 203.208C90.2299 204.688 89.7899 214.268 83.8299 216.688C77.8799 219.108 81.2799 226.758 88.9799 220.378C96.6799 213.998 108.08 212.088 108.76 207.338C109.43 202.588 107.01 196.638 116.19 194.058C125.37 191.478 130.7 188.318 136.8 191.638C142.9 194.958 147.97 199.558 150.38 208.028C152.79 216.498 143.09 214.908 140.96 225.468C138.82 236.038 132.56 232.008 139.84 242.318C147.12 252.618 155.08 255.658 154.27 266.808C153.45 277.958 163.94 278.478 150.13 284.058C136.32 289.638 136.31 277.498 125.54 275.108C114.77 272.728 121.71 269.478 113.97 264.178C107.08 259.458 105.02 264.968 95.1799 264.068C88.7899 258.988 82.8299 253.178 77.4199 246.638C57.6399 222.758 48.6499 193.508 49.8899 164.798Z" fill="#8BD2A0"/>
<path d="M101.749 84.1182C108.609 81.7782 108.889 86.1582 108.039 92.7282C107.199 99.2882 108.669 105.618 117.409 110.098C126.149 114.578 126.009 120.978 127.649 125.488C129.289 129.998 129.489 132.758 117.779 125.708C106.069 118.658 107.999 122.498 98.5789 125.288C89.1589 128.068 83.9489 129.878 82.2689 123.298C80.5889 116.728 82.9889 115.578 76.7189 114.078C71.5789 112.848 67.3689 116.458 64.3789 112.488C70.4589 101.308 78.4189 90.9382 88.2089 81.8682C93.0089 83.7382 98.4589 85.2382 101.749 84.1182Z" fill="#8BD2A0"/>
<path d="M134.899 54.9678C134.609 57.6578 133.349 60.4678 130.089 62.7178C127.099 64.7778 125.279 67.1078 123.989 69.3378C121.379 73.8578 120.959 77.9778 117.359 78.7078C111.989 79.8078 109.069 74.2678 99.5691 75.4378C98.0591 75.6278 96.7591 75.6278 95.6191 75.5178C107.669 66.0278 120.999 59.2078 134.889 54.9778L134.899 54.9678Z" fill="#8BD2A0"/>
<path d="M156.05 57.1285C149.51 63.3885 152.55 67.5685 147.22 70.7285C141.88 73.8985 133.26 70.5685 136.7 65.6185C140.14 60.6685 149.78 55.6185 146.44 52.0985C146.44 52.0985 146.43 52.0785 146.42 52.0685C150.84 51.1885 155.3 50.5685 159.77 50.1885C159.35 52.4885 158.31 54.9485 156.05 57.1085V57.1285Z" fill="#8BD2A0"/>
<path d="M149.608 98.908C157.488 100.338 166.628 110.348 170.898 106.398C175.158 102.448 168.318 99.738 168.998 92.478C169.678 85.208 152.158 88.838 146.578 89.688C140.998 90.538 136.428 88.048 145.408 80.188C154.388 72.328 153.368 68.568 163.088 62.598C167.828 59.698 169.298 54.418 169.568 49.768C180.508 49.738 191.428 51.208 201.998 54.118C203.368 56.998 205.308 60.468 207.898 63.578C213.658 70.528 214.018 76.518 220.728 83.108C227.438 89.688 241.838 112.118 237.368 113.298C232.908 114.488 229.438 100.188 223.648 100.788C217.868 101.388 238.018 123.448 237.868 127.548C237.188 145.518 219.348 149.178 218.628 154.378C217.908 159.578 208.958 157.368 215.428 146.978C221.898 136.588 209.798 138.658 217.038 132.238C224.278 125.818 212.198 120.328 209.258 124.868C206.318 129.398 198.098 126.568 200.278 132.728C202.448 138.888 201.948 141.818 193.958 134.198C185.968 126.578 187.758 136.828 178.358 129.528C168.958 122.238 168.968 134.378 162.188 138.318C155.408 142.268 151.618 136.178 158.708 129.058C165.788 121.928 161.668 119.488 158.018 124.178C154.368 128.878 150.048 138.318 148.008 128.278" fill="#8BD2A0"/>
<path d="M130.258 78.0778C130.258 78.0778 136.628 73.6378 137.068 78.7178C137.508 83.7978 131.698 94.4778 136.398 95.6078C141.098 96.7378 141.418 100.658 140.788 104.958C140.158 109.248 138.378 108.628 132.528 105.098C126.678 101.568 126.438 113.918 123.108 105.358C119.788 96.7978 122.448 90.4078 122.948 87.4778C123.448 84.5478 130.238 78.0778 130.238 78.0778H130.258Z" stroke="white" stroke-width="0.38" stroke-miterlimit="10" stroke-linecap="round"/>
<path d="M156.049 57.1279C149.509 63.3879 152.549 67.5679 147.219 70.7279" stroke="white" stroke-width="0.38" stroke-miterlimit="10" stroke-linecap="round"/>
<defs>
<linearGradient id="paint0_linear_2006_5106" x1="84.973" y1="84.9733" x2="289.049" y2="184.9" gradientUnits="userSpaceOnUse">
<stop stop-color="#5BB582"/>
<stop offset="1" stop-color="#284F39"/>
</linearGradient>
</defs>
</svg>
