<svg id="wave" style="transform:rotate(0deg); transition: 0.3s" viewBox="0 0 1440 80" version="1.1" xmlns="http://www.w3.org/2000/svg"><defs><linearGradient id="sw-gradient-0" x1="0" x2="0" y1="1" y2="0"><stop stop-color="rgba(255, 255, 255, 1)" offset="0%"></stop><stop stop-color="rgba(255, 255, 255, 1)" offset="100%"></stop></linearGradient></defs><path style="transform:translate(0, 0px); opacity:1" fill="url(#sw-gradient-0)" d="M0,10L15,13.3C30,17,60,23,90,35C120,47,150,63,180,60C210,57,240,33,270,23.3C300,13,330,17,360,18.3C390,20,420,20,450,23.3C480,27,510,33,540,41.7C570,50,600,60,630,65C660,70,690,70,720,71.7C750,73,780,77,810,66.7C840,57,870,33,900,25C930,17,960,23,990,31.7C1020,40,1050,50,1080,45C1110,40,1140,20,1170,11.7C1200,3,1230,7,1260,11.7C1290,17,1320,23,1350,28.3C1380,33,1410,37,1440,46.7C1470,57,1500,73,1530,73.3C1560,73,1590,57,1620,43.3C1650,30,1680,20,1710,25C1740,30,1770,50,1800,50C1830,50,1860,30,1890,21.7C1920,13,1950,17,1980,15C2010,13,2040,7,2070,5C2100,3,2130,7,2145,8.3L2160,10L2160,100L2145,100C2130,100,2100,100,2070,100C2040,100,2010,100,1980,100C1950,100,1920,100,1890,100C1860,100,1830,100,1800,100C1770,100,1740,100,1710,100C1680,100,1650,100,1620,100C1590,100,1560,100,1530,100C1500,100,1470,100,1440,100C1410,100,1380,100,1350,100C1320,100,1290,100,1260,100C1230,100,1200,100,1170,100C1140,100,1110,100,1080,100C1050,100,1020,100,990,100C960,100,930,100,900,100C870,100,840,100,810,100C780,100,750,100,720,100C690,100,660,100,630,100C600,100,570,100,540,100C510,100,480,100,450,100C420,100,390,100,360,100C330,100,300,100,270,100C240,100,210,100,180,100C150,100,120,100,90,100C60,100,30,100,15,100L0,100Z"></path></svg>