<?xml version="1.0" encoding="UTF-8"?> <svg xmlns="http://www.w3.org/2000/svg" xmlns:xlink="http://www.w3.org/1999/xlink" viewBox="0 0 170.32 72.11"><defs><style>.cls-1{fill:#86c059;}.cls-2{clip-path:url(#clip-path);}.cls-3{fill:url(#web_app_gradient);}.cls-4{fill:url(#web_app_gradient-2);}.cls-5{clip-path:url(#clip-path-2);}.cls-6{fill:#68b030;}</style><clipPath id="clip-path"><path class="cls-1" d="M108.89,35.81c4.37-6.79,1.52-14.72-3.17-16.67-3.9-1.61-9.86.57-12.93,6C94.46,13.69,92.57,3.5,89,1.2c-4.18-2.67-12.73,4-16.87,19.74.4-7.09-.67-13.63-3.14-15.17C65.86,3.84,59.77,9.2,56.13,21.26,55.46,12.8,50.93,7,46.79,7.07c-4.92.12-10.09,8.66-8.66,19.09C34.5,17.49,27.53,14.48,23,17.67c-5.45,3.81-8.13,16.87-3,27.08-2.5-6.2-7.57-10-11.47-9.46C3.59,36-1.46,43.91,1.34,53.61a10.11,10.11,0,0,0,3.51,3.88A11.26,11.26,0,0,0,12,58.87c16.78-1.52,33.68,1.2,50.52,1,15.27-.17,21.33.57,37-.62s21.29-2.81,23.63-7.26c2.6-4.92,1.29-13.66-4.36-16.54C114.61,33.34,109.93,35.33,108.89,35.81Z"></path></clipPath><linearGradient id="web_app_gradient" x1="98.2" y1="-33.33" x2="55.33" y2="69.96" gradientUnits="userSpaceOnUse"><stop offset="0" stop-color="#68b030"></stop><stop offset="1" stop-color="#007a49"></stop></linearGradient><linearGradient id="web_app_gradient-2" x1="60.93" y1="1.98" x2="60.68" y2="57.51" xlink:href="#web_app_gradient"></linearGradient><clipPath id="clip-path-2"><path class="cls-1" d="M87.25,62.24c-4.3-4.8-4-10.53-1.76-12.2,2-1.5,6.61-.54,10.16,3.27-1.32-6.22.17-11.75,3-13,3.29-1.45,10,2.16,13.26,10.69-.32-3.84.53-7.38,2.47-8.22,2.43-1,7.22,1.86,10.08,8.4.52-4.59,4.08-7.75,7.34-7.69,3.86.06,7.93,4.69,6.8,10.34,2.86-4.7,8.34-6.33,11.94-4.6,4.28,2.07,6.39,9.15,2.38,14.68a7.52,7.52,0,0,1,14.69,2.82,3.88,3.88,0,0,1-.37,1.42c-1.93,3.94-10.94,3.19-13.74,3-14.18-1-62.54-.69-73.32-.18-1.56.07-5.27.29-7-2-2-2.54-1.2-7.87,2.07-10.14S84.23,57.63,87.25,62.24Z"></path></clipPath></defs><g id="Trees"><path class="cls-1" d="M108.89,35.81c4.37-6.79,1.52-14.72-3.17-16.67-3.9-1.61-9.86.57-12.93,6C94.46,13.69,92.57,3.5,89,1.2c-4.18-2.67-12.73,4-16.87,19.74.4-7.09-.67-13.63-3.14-15.17C65.86,3.84,59.77,9.2,56.13,21.26,55.46,12.8,50.93,7,46.79,7.07c-4.92.12-10.09,8.66-8.66,19.09C34.5,17.49,27.53,14.48,23,17.67c-5.45,3.81-8.13,16.87-3,27.08-2.5-6.2-7.57-10-11.47-9.46C3.59,36-1.46,43.91,1.34,53.61a10.11,10.11,0,0,0,3.51,3.88A11.26,11.26,0,0,0,12,58.87c16.78-1.52,33.68,1.2,50.52,1,15.27-.17,21.33.57,37-.62s21.29-2.81,23.63-7.26c2.6-4.92,1.29-13.66-4.36-16.54C114.61,33.34,109.93,35.33,108.89,35.81Z"></path><g class="cls-2"><path class="cls-3" d="M-10.53,63l141.65,1c-.59-11.12-6.33-20.61-15-24.32a22.94,22.94,0,0,0-12.54-1.38c3.11-7,.46-13.51-3.26-14.79s-7.93,2.68-8.15,2.89c-.2-1.06-1.83-8.74-9.23-12.69A18.39,18.39,0,0,0,70,12.16a5.3,5.3,0,1,1-10.5-1.22l-4.82,9.93a22.79,22.79,0,0,0-21.08-4.45c1.17,2.56,2.13,5.75.71,7.83-3.52,5.17-17.19-2.84-27.4.88C-.35,27.79-7.58,37-10.53,63Z"></path><path class="cls-4" d="M.23,61.61l120.86,1.12a45.75,45.75,0,0,0-13.88-28.94c-.95,10.05-3.36,11.85-4.75,12.19-5.25,1.29-13.12-13.9-15.93-19.62-.48,3.27-1,6.55-1.45,9.82L73,25.51c-1.78,8.56-4.79,14.28-7.07,14.08S62,34,61.33,26.92L56.86,43.35a49.08,49.08,0,0,0-9.77-4.83,49.76,49.76,0,0,0-20-2.85c8.79,7.16,10,9.9,9.38,11.06-1.66,3.18-16.88-5.46-27.39.88C3.67,50.88,1.34,57,.23,61.61Z"></path><path class="cls-1" d="M44.57,31.77s-8.33-5-14.31.46C36.66,35.43,44.57,31.77,44.57,31.77Z"></path><path class="cls-1" d="M85.51,38.1s-5.33-4.3-10-.48C79.68,40.42,85.51,38.1,85.51,38.1Z"></path><path class="cls-1" d="M53.23,25.57s-5.33-4.3-10-.49C47.41,27.88,53.23,25.57,53.23,25.57Z"></path><path class="cls-1" d="M98.7,34.35s-7.37-6.63-15.11.59C89.11,39.93,98.7,34.35,98.7,34.35Z"></path><path class="cls-1" d="M57.28,44.61s5.64,3.89,10-.26C62.92,41.87,57.28,44.61,57.28,44.61Z"></path><path class="cls-1" d="M80.17,47.82a8.54,8.54,0,0,0-11.74.46C72.72,52.15,80.17,47.82,80.17,47.82Z"></path></g><path class="cls-1" d="M87.25,62.24c-4.3-4.8-4-10.53-1.76-12.2,2-1.5,6.61-.54,10.16,3.27-1.32-6.22.17-11.75,3-13,3.29-1.45,10,2.16,13.26,10.69-.32-3.84.53-7.38,2.47-8.22,2.43-1,7.22,1.86,10.08,8.4.52-4.59,4.08-7.75,7.34-7.69,3.86.06,7.93,4.69,6.8,10.34,2.86-4.7,8.34-6.33,11.94-4.6,4.28,2.07,6.39,9.15,2.38,14.68a7.52,7.52,0,0,1,14.69,2.82,3.88,3.88,0,0,1-.37,1.42c-1.93,3.94-10.94,3.19-13.74,3-14.18-1-62.54-.69-73.32-.18-1.56.07-5.27.29-7-2-2-2.54-1.2-7.87,2.07-10.14S84.23,57.63,87.25,62.24Z"></path><g class="cls-5"><path class="cls-6" d="M85.61,60c-3.26-3.7-3.4-7.78-2-9C85,50,88.2,50.73,91,53.27c-.88-4.9.89-9.45,3.88-10.91,3.93-1.92,11.06,1,13.33,8.48a6.08,6.08,0,1,1,12.1-1c3.88-3.47,8.95-4.15,12.28-2a8.62,8.62,0,0,1,3.36,4.8,10.85,10.85,0,0,1,7.37-1.28c5,1.12,9,6.67,9.1,13.69,1.83-3.71,5.65-5.75,9-5.12,4.39.81,7.79,8.9,6.1,14.43-31.47,0-62.94-.23-94.41-.23C70.64,70.37,71.41,62.79,74.74,60A8.77,8.77,0,0,1,85.61,60Z"></path><path class="cls-1" d="M108,55s-2.22-1.34-3.81.12A4.94,4.94,0,0,0,108,55Z"></path><path class="cls-1" d="M130.63,53.36s-2.22-1.35-3.82.12A5,5,0,0,0,130.63,53.36Z"></path><path class="cls-1" d="M120.44,61.29s-2.11-1.28-3.63.11A4.76,4.76,0,0,0,120.44,61.29Z"></path><path class="cls-1" d="M124.59,62.91s-3.33-2-5.72.19C121.43,64.38,124.59,62.91,124.59,62.91Z"></path><path class="cls-1" d="M114.64,55.91a2.6,2.6,0,0,0,3.57,0C116.94,54.65,114.64,55.91,114.64,55.91Z"></path><path class="cls-1" d="M103.5,51.72s-2.22-1.35-3.82.12A5,5,0,0,0,103.5,51.72Z"></path><path class="cls-1" d="M102.5,45.23s-2.22-1.34-3.82.13A5,5,0,0,0,102.5,45.23Z"></path><path class="cls-1" d="M96.44,58s-2.22-1.34-3.81.12A4.94,4.94,0,0,0,96.44,58Z"></path><path class="cls-1" d="M89.3,57.1a2.6,2.6,0,0,0,3.57,0C91.6,55.85,89.3,57.1,89.3,57.1Z"></path><path class="cls-1" d="M134.6,53.29s-2.22-1.34-3.82.13A5,5,0,0,0,134.6,53.29Z"></path><path class="cls-1" d="M139.51,58.56s-2.22-1.34-3.82.12A5,5,0,0,0,139.51,58.56Z"></path><path class="cls-1" d="M115.71,64s-2.22-1.35-3.82.12A5,5,0,0,0,115.71,64Z"></path><path class="cls-1" d="M80.41,60.77s-2.11-1.27-3.62.12A4.71,4.71,0,0,0,80.41,60.77Z"></path><path class="cls-1" d="M84.57,62.4s-3.33-2-5.72.18C81.41,63.86,84.57,62.4,84.57,62.4Z"></path><path class="cls-1" d="M132.37,57.66a2.59,2.59,0,0,0,3.57,0C134.67,56.4,132.37,57.66,132.37,57.66Z"></path><path class="cls-1" d="M121.23,53.46s-2.22-1.34-3.82.13A5,5,0,0,0,121.23,53.46Z"></path><path class="cls-1" d="M149.27,57.84s-2.22-1.35-3.81.12A5,5,0,0,0,149.27,57.84Z"></path><path class="cls-1" d="M142.14,56.93a2.59,2.59,0,0,0,3.56,0C144.43,55.68,142.14,56.93,142.14,56.93Z"></path></g></g></svg> 