<svg width="1013" height="869" viewBox="0 0 1013 869" fill="none" xmlns="http://www.w3.org/2000/svg">
<path d="M999.131 794.073H984.729V42.3265C984.729 18.45 965.286 0 942.604 0H354.646C330.883 0 312.522 19.5353 312.522 42.3265V794.073H277.236V141.45H72.0095C48.2463 141.45 29.884 160.985 29.884 183.776V794.073H13.6818C5.76076 794.073 0 800.947 0 807.821V854.488C0 862.447 6.84088 868.235 13.6818 868.235H999.131C1007.05 868.235 1012.81 861.362 1012.81 854.488V807.821C1012.81 800.947 1005.97 794.073 999.131 794.073ZM117.375 244.191C117.375 236.232 124.216 230.444 131.057 230.444H173.183C181.104 230.444 186.864 237.318 186.864 244.191V286.518C186.864 294.476 180.024 300.265 173.183 300.265H131.057C123.136 300.265 117.375 293.391 117.375 286.518V244.191ZM117.375 386.726C117.375 378.768 124.216 372.979 131.057 372.979H173.183C181.104 372.979 186.864 379.853 186.864 386.726V429.053C186.864 437.012 180.024 442.8 173.183 442.8H131.057C123.136 442.8 117.375 435.926 117.375 429.053V386.726ZM117.375 529.262C117.375 521.303 124.216 515.515 131.057 515.515H173.183C181.104 515.515 186.864 522.388 186.864 529.262V571.588C186.864 579.547 180.024 585.335 173.183 585.335H131.057C123.136 585.335 117.375 578.462 117.375 571.588V529.262ZM117.375 670.712C117.375 662.753 124.216 656.965 131.057 656.965H173.183C181.104 656.965 186.864 663.838 186.864 670.712V713.038C186.864 720.997 180.024 726.785 173.183 726.785H131.057C123.136 726.785 117.375 719.912 117.375 713.038V670.712ZM662.486 794.073V656.965H740.977C748.897 656.965 754.658 663.838 754.658 670.712V794.073H662.845H662.486ZM824.869 102.741C824.869 94.7823 831.71 88.9941 838.551 88.9941H880.675C888.595 88.9941 894.357 95.8676 894.357 102.741V145.068C894.357 153.026 887.516 158.815 880.675 158.815H838.551C830.628 158.815 824.869 151.941 824.869 145.068V102.741ZM824.869 244.191C824.869 236.232 831.71 230.444 838.551 230.444H880.675C888.595 230.444 894.357 237.318 894.357 244.191V286.518C894.357 294.476 887.516 300.265 880.675 300.265H838.551C830.628 300.265 824.869 293.391 824.869 286.518V244.191ZM824.869 386.726C824.869 378.768 831.71 372.979 838.551 372.979H880.675C888.595 372.979 894.357 379.853 894.357 386.726V429.053C894.357 437.012 887.516 442.8 880.675 442.8H838.551C830.628 442.8 824.869 435.926 824.869 429.053V386.726ZM824.869 529.262C824.869 521.303 831.71 515.515 838.551 515.515H880.675C888.595 515.515 894.357 522.388 894.357 529.262V571.588C894.357 579.547 887.516 585.335 880.675 585.335H838.551C830.628 585.335 824.869 578.462 824.869 571.588V529.262ZM824.869 670.712C824.869 662.753 831.71 656.965 838.551 656.965H880.675C888.595 656.965 894.357 663.838 894.357 670.712V713.038C894.357 720.997 887.516 726.785 880.675 726.785H838.551C830.628 726.785 824.869 719.912 824.869 713.038V670.712ZM684.088 102.379C684.088 94.4206 690.929 88.6323 697.77 88.6323H739.897C747.817 88.6323 753.579 95.5059 753.579 102.379V144.706C753.579 152.665 746.738 158.453 739.897 158.453H697.77C689.85 158.453 684.088 151.579 684.088 144.706V102.379ZM684.088 243.829C684.088 235.871 690.929 230.082 697.77 230.082H739.897C747.817 230.082 753.579 236.956 753.579 243.829V286.156C753.579 294.115 746.738 299.903 739.897 299.903H697.77C689.85 299.903 684.088 293.029 684.088 286.156V243.829ZM684.088 386.365C684.088 378.406 690.929 372.618 697.77 372.618H739.897C747.817 372.618 753.579 379.491 753.579 386.365V428.691C753.579 436.65 746.738 442.438 739.897 442.438H697.77C689.85 442.438 684.088 435.565 684.088 428.691V386.365ZM684.088 528.9C684.088 520.941 690.929 515.153 697.77 515.153H739.897C747.817 515.153 753.579 522.026 753.579 528.9V571.226C753.579 579.185 746.738 584.974 739.897 584.974H697.77C689.85 584.974 684.088 578.1 684.088 571.226V528.9ZM542.231 102.741C542.231 94.7823 549.072 88.9941 555.913 88.9941H598.037C605.96 88.9941 611.721 95.8676 611.721 102.741V145.068C611.721 153.026 604.881 158.815 598.037 158.815H555.913C547.992 158.815 542.231 151.941 542.231 145.068V102.741ZM542.231 244.191C542.231 236.232 549.072 230.444 555.913 230.444H598.037C605.96 230.444 611.721 237.318 611.721 244.191V286.518C611.721 294.476 604.881 300.265 598.037 300.265H555.913C547.992 300.265 542.231 293.391 542.231 286.518V244.191ZM542.231 386.726C542.231 378.768 549.072 372.979 555.913 372.979H598.037C605.96 372.979 611.721 379.853 611.721 386.726V429.053C611.721 437.012 604.881 442.8 598.037 442.8H555.913C547.992 442.8 542.231 435.926 542.231 429.053V386.726ZM542.231 529.262C542.231 521.303 549.072 515.515 555.913 515.515H598.037C605.96 515.515 611.721 522.388 611.721 529.262V571.588C611.721 579.547 604.881 585.335 598.037 585.335H555.913C547.992 585.335 542.231 578.462 542.231 571.588V529.262ZM400.012 102.741C400.012 94.7823 406.853 88.9941 413.693 88.9941H455.821C463.741 88.9941 469.502 95.8676 469.502 102.741V145.068C469.502 153.026 462.661 158.815 455.821 158.815H413.693C405.773 158.815 400.012 151.941 400.012 145.068V102.741ZM400.012 244.191C400.012 236.232 406.853 230.444 413.693 230.444H455.821C463.741 230.444 469.502 237.318 469.502 244.191V286.518C469.502 294.476 462.661 300.265 455.821 300.265H413.693C405.773 300.265 400.012 293.391 400.012 286.518V244.191ZM400.012 386.726C400.012 378.768 406.853 372.979 413.693 372.979H455.821C463.741 372.979 469.502 379.853 469.502 386.726V429.053C469.502 437.012 462.661 442.8 455.821 442.8H413.693C405.773 442.8 400.012 435.926 400.012 429.053V386.726ZM400.012 529.262C400.012 521.303 406.853 515.515 413.693 515.515H455.821C463.741 515.515 469.502 522.388 469.502 529.262V571.588C469.502 579.547 462.661 585.335 455.821 585.335H413.693C405.773 585.335 400.012 578.462 400.012 571.588V529.262ZM400.012 670.712C400.012 662.753 406.853 656.965 413.693 656.965H455.821C463.741 656.965 469.502 663.838 469.502 670.712V713.038C469.502 720.997 462.661 726.785 455.821 726.785H413.693C405.773 726.785 400.012 719.912 400.012 713.038V670.712ZM541.872 670.712C541.872 662.753 548.713 656.965 555.554 656.965H634.044V795.159H542.231V670.712H541.872Z" fill="white"/>
</svg>
