<svg width="1024" height="1024" viewBox="0 0 1024 1024" fill="none" xmlns="http://www.w3.org/2000/svg">
<path d="M0 1023.87C220.881 997.031 290.968 951.408 290.968 951.408C290.968 951.408 407.171 970.493 517.917 951.408C911.437 886.701 948.451 558.685 908.403 385.434C868.352 211.886 1024 169.84 1024 169.84L910.829 40.7223C887.165 16.2702 853.789 0.465874 816.47 0.465874C595.587 -12.6547 512.15 255.72 512.15 255.72C512.15 255.72 669.315 282.558 725.446 433.146C814.65 669.613 608.938 768.912 608.938 768.912V768.317C673.261 721.799 715.738 647.248 715.738 562.861C715.738 421.517 599.229 307.308 456.022 307.308C404.442 307.308 356.806 322.516 316.454 347.863H315.847C314.027 348.458 312.813 349.949 310.993 350.548C310.993 350.845 310.386 350.845 310.386 350.845C66.4461 483.54 9.70902 963.335 0 1023.87ZM818.291 93.8007C818.291 80.0839 829.517 68.7523 843.472 68.7523C857.43 68.7523 868.656 79.7856 868.656 93.8007C868.656 107.816 857.43 118.253 843.472 118.253C829.517 118.253 818.291 107.22 818.291 93.8007Z" fill="white"/>
</svg>
