<svg width="1339" height="892" viewBox="0 0 1339 892" fill="none" xmlns="http://www.w3.org/2000/svg">
<path d="M624.949 311.433H713.357V227.091H624.949V311.433ZM947.013 311.433H1035.54V227.091H947.013V311.433ZM302.882 311.433H391.293V227.091H302.882V311.433ZM0 311.433H69.2267V227.091H0V311.433ZM1269.08 227.091V311.433H1338.31V227.091H1269.08Z" fill="white"/>
<path d="M624.949 755.582H713.357V671.237H624.949V755.582ZM947.013 755.582H1035.54V671.237H947.013V755.582ZM302.882 755.582H391.293V671.237H302.882V755.582ZM0 755.582H69.2267V671.237H0V755.582ZM1269.08 671.237V755.582H1338.31V671.237H1269.08Z" fill="white"/>
<path d="M1152.53 0L1046.49 105.878V892H1257.86V105.878L1152.53 0ZM1152.53 728.726C1143.35 728.726 1135.85 722.412 1135.85 714.702C1135.85 706.987 1143.35 700.679 1152.53 700.679C1161.71 700.679 1169.21 706.987 1169.21 714.702C1169.21 722.412 1161.71 728.726 1152.53 728.726ZM1152.53 284.578C1143.35 284.578 1135.85 278.267 1135.85 270.555C1135.85 262.842 1143.35 256.531 1152.53 256.531C1161.71 256.531 1169.21 262.842 1169.21 270.555C1169.21 278.267 1161.71 284.578 1152.53 284.578Z" fill="white"/>
<path d="M830.465 0L724.42 105.878V892H935.796V105.878L830.465 0ZM830.465 728.726C821.288 728.726 813.781 722.412 813.781 714.702C813.781 706.987 821.288 700.679 830.465 700.679C839.636 700.679 847.143 706.987 847.143 714.702C847.143 722.412 839.636 728.726 830.465 728.726ZM830.465 284.578C821.288 284.578 813.781 278.267 813.781 270.555C813.781 262.842 821.288 256.531 830.465 256.531C839.636 256.531 847.143 262.842 847.143 270.555C847.143 278.267 839.636 284.578 830.465 284.578Z" fill="white"/>
<path d="M508.396 0L402.351 105.878V892H613.726V105.878L508.396 0ZM508.396 728.726C499.221 728.726 491.715 722.412 491.715 714.702C491.715 706.987 499.221 700.679 508.396 700.679C517.571 700.679 525.077 706.987 525.077 714.702C525.077 722.412 517.571 728.726 508.396 728.726ZM508.396 284.578C499.221 284.578 491.715 278.267 491.715 270.555C491.715 262.842 499.221 256.531 508.396 256.531C517.571 256.531 525.077 262.842 525.077 270.555C525.077 278.267 517.571 284.578 508.396 284.578Z" fill="white"/>
<path d="M186.328 0L80.2836 105.878V892H291.777V105.878L186.328 0ZM186.328 728.726C177.154 728.726 169.647 722.412 169.647 714.702C169.647 706.987 177.154 700.679 186.328 700.679C195.503 700.679 203.01 706.987 203.01 714.702C203.01 722.412 195.503 728.726 186.328 728.726ZM186.328 284.578C177.154 284.578 169.647 278.267 169.647 270.555C169.647 262.842 177.154 256.531 186.328 256.531C195.503 256.531 203.01 262.842 203.01 270.555C203.01 278.267 195.503 284.578 186.328 284.578Z" fill="white"/>
</svg>
