<svg width="1043" height="874" viewBox="0 0 1043 874" fill="none" xmlns="http://www.w3.org/2000/svg">
<path fill-rule="evenodd" clip-rule="evenodd" d="M985.99 828.685H911.309V742.407H930.147C992.471 742.407 1043 685.024 1043 629.638L1005.35 629.613C956.685 629.613 915.224 660.4 899.39 703.539C897.265 702.71 894.933 702.22 892.523 702.22C892.523 639.917 841.991 589.426 779.645 589.426H723.208V608.225C723.208 670.524 773.737 721.019 836.083 721.019H873.71V828.685H545.678L540.001 649.757L626.603 521.115C651.585 536.574 681.02 545.508 712.53 545.508C802.786 545.508 875.965 472.383 875.965 382.195C875.965 299.232 814.059 230.715 733.858 220.28V219.84C733.858 98.4231 635.362 0 513.855 0C392.348 0 299.087 93.2442 294.036 210.181C228.916 226.521 180.666 285.403 180.666 355.552C180.666 438.308 247.806 505.426 330.651 505.426C358.144 505.426 383.928 498.019 406.082 485.098L488.459 593.127L483.693 828.685H226.739V715.4H249.465C324.587 715.4 385.456 654.547 385.456 579.507V579.456H340.057C280.353 579.456 229.693 617.881 211.399 671.328C209.092 670.524 206.631 670.085 204.065 670.085C204.065 594.991 143.17 534.141 68.0216 534.141H0V556.797C0 631.891 60.8957 692.741 136.044 692.741H181.391V828.685H98.4696C85.9536 828.685 75.7957 838.837 75.7957 851.344C75.7957 863.85 85.9536 874 98.4696 874H985.99C998.506 874 1008.67 863.85 1008.67 851.344C1008.67 838.837 998.506 828.685 985.99 828.685ZM557.909 435.277C567.756 463.942 585.349 488.983 608.204 507.938L539.975 583.497L535.104 438.697C542.825 437.97 550.445 436.805 557.909 435.277ZM426.426 470.908C439.357 460.161 450.472 447.319 459.179 432.844C469.855 435.562 480.817 437.53 492.037 438.644L488.459 537.273L426.398 470.908H426.426Z" fill="white"/>
</svg>
