<?xml version="1.0" encoding="UTF-8"?>
<svg version="1.1" xmlns="http://www.w3.org/2000/svg" width="512" height="512">
<path d="M0 0 C1.43150549 0.00290852 2.86301813 0.00328682 4.29452515 0.00126648 C7.28224617 0.00447 10.26848381 0.03126756 13.25585938 0.07641602 C17.07366954 0.13318832 20.88964004 0.14126259 24.70780373 0.133008 C27.65915816 0.13020326 30.61010648 0.14785213 33.56135178 0.17214012 C34.96865501 0.18230687 36.37600432 0.18744799 37.78334427 0.18734169 C39.75235096 0.19133309 41.72123151 0.22461487 43.68994141 0.2590332 C44.80720612 0.27126419 45.92447083 0.28349518 47.07559204 0.2960968 C51.84000009 1.09862032 55.02199034 3.39748216 58.0859375 7.07421875 C58.4571875 7.65171875 58.8284375 8.22921875 59.2109375 8.82421875 C59.8296875 7.87546875 60.4484375 6.92671875 61.0859375 5.94921875 C63.2109375 2.82421875 63.2109375 2.82421875 65.2109375 0.82421875 C67.88545227 0.55006409 67.88545227 0.55006409 71.32543945 0.51782227 C73.25302849 0.49384117 73.25302849 0.49384117 75.21955872 0.46937561 C76.62944138 0.46299844 78.03932879 0.45760585 79.44921875 0.453125 C80.89169917 0.44416017 82.33417863 0.43503835 83.7766571 0.42576599 C86.80384583 0.40926059 89.83092378 0.4015734 92.8581543 0.39868164 C96.73223707 0.39330351 100.60527425 0.35565583 104.47906208 0.30993748 C107.46027901 0.28014879 110.44124507 0.27295768 113.42259789 0.27195549 C114.85034143 0.26775479 116.27808583 0.25532619 117.70568275 0.23443794 C119.70636038 0.20750136 121.70741505 0.21545962 123.70825195 0.22485352 C124.8458345 0.21978287 125.98341705 0.21471222 127.1554718 0.20948792 C131.19974513 1.0231575 132.67485934 2.63361091 135.2109375 5.82421875 C136.30609492 9.0087336 136.33435199 12.00485563 136.33119202 15.35443115 C136.33325401 17.04130287 136.33325401 17.04130287 136.33535767 18.76225281 C136.33176239 19.99151993 136.32816711 21.22078705 136.32446289 22.48730469 C136.32460892 23.78511368 136.32475494 25.08292267 136.3249054 26.4200592 C136.32519228 29.97550793 136.31931316 33.53092291 136.31233144 37.08636379 C136.30607975 40.80328132 136.30549266 44.52019961 136.30430603 48.23712158 C136.30119807 55.27414853 136.29299189 62.31115995 136.28295654 69.34818006 C136.27177879 77.36021013 136.26628076 85.37224094 136.26126111 93.38427687 C136.25080884 109.86426659 136.23321975 126.34424069 136.2109375 142.82421875 C137.27502838 142.8153363 138.33911926 142.80645386 139.43545532 142.79730225 C149.46993695 142.71616927 159.50435192 142.65623067 169.5390873 142.61697006 C174.69790964 142.59610709 179.85646692 142.56781278 185.01513672 142.52246094 C189.99479142 142.47895751 194.97419136 142.45507194 199.95402145 142.44470978 C201.85262436 142.43732651 203.75121352 142.42290861 205.64970779 142.40129852 C208.31186153 142.37220467 210.97296643 142.36826523 213.63525391 142.37011719 C214.41784576 142.35573608 215.20043762 142.34135498 216.00674438 142.32653809 C221.1756644 142.36537327 224.10412008 143.41619872 228.2109375 146.82421875 C229.94859293 150.29952962 229.80679102 154.03301885 229.2109375 157.82421875 C226.68125276 161.10597193 225.13362419 162.51665652 221.2109375 163.82421875 C219.86644631 163.9180659 218.5178405 163.95903089 217.17008972 163.96466064 C216.35004959 163.97037079 215.53000946 163.97608093 214.68511963 163.98196411 C213.78895935 163.98308197 212.89279907 163.98419983 211.96948242 163.98535156 C211.02283218 163.99031647 210.07618195 163.99528137 209.10084534 164.00039673 C205.96435828 164.01501986 202.82792181 164.02182071 199.69140625 164.02734375 C197.51288349 164.03309519 195.33436074 164.03885292 193.15583801 164.0446167 C188.58525354 164.05512719 184.01468666 164.06096951 179.4440918 164.06445312 C173.58966908 164.06993717 167.73547902 164.09396324 161.88112926 164.12242508 C157.37981997 164.14105609 152.87856666 164.14625732 148.37722206 164.147789 C146.21907594 164.15081513 144.06093079 164.15884229 141.90282249 164.17197418 C138.8818941 164.18904365 135.86153333 164.18715205 132.84057617 164.18066406 C131.50544479 164.19448624 131.50544479 164.19448624 130.14334106 164.20858765 C125.098067 164.17467345 121.55143287 163.68885067 117.2109375 160.82421875 C114.94137899 157.41988098 114.96312255 156.25509159 114.97042847 152.2624054 C114.96630447 150.52711075 114.96630447 150.52711075 114.96209717 148.75675964 C114.972883 146.85136162 114.972883 146.85136162 114.98388672 144.9074707 C114.98445082 143.55729175 114.98413429 142.20711219 114.98300171 140.85693359 C114.98242716 137.18981922 114.994198 133.5228353 115.00814962 129.85575128 C115.02063991 126.02405471 115.02182614 122.19235526 115.02420044 118.36064148 C115.03042022 111.1039808 115.04683776 103.84738028 115.06689942 96.5907461 C115.08924294 88.32965717 115.10024795 80.06856538 115.11029029 71.80745375 C115.13120357 54.8130013 115.167886 37.81863173 115.2109375 20.82421875 C103.3309375 20.82421875 91.4509375 20.82421875 79.2109375 20.82421875 C78.8809375 24.78421875 78.5509375 28.74421875 78.2109375 32.82421875 C77.70012568 37.29748362 77.05644118 41.745437 76.3984375 46.19921875 C76.24568359 47.33488281 76.09292969 48.47054687 75.93554688 49.640625 C75.03764819 55.69523039 74.19546758 60.09624386 70.2109375 64.82421875 C71.10554687 65.66082031 72.00015625 66.49742188 72.921875 67.359375 C91.09182062 84.69997655 102.66449655 104.65611649 103.66357422 130.32324219 C103.8735786 141.96657765 101.83991207 150.71183246 94.2109375 159.82421875 C95.36162595 162.13115454 96.51957353 164.43412285 97.68359375 166.734375 C98.20824219 167.77464844 98.73289063 168.81492188 99.2734375 169.88671875 C99.80066406 170.92957031 100.32789063 171.97242188 100.87109375 173.046875 C102.70004353 176.83807993 103.34430438 179.68330274 103.41625977 183.84643555 C103.43620499 184.8672673 103.45615021 185.88809906 103.47669983 186.93986511 C103.50176857 188.58998344 103.50176857 188.58998344 103.52734375 190.2734375 C103.54812485 191.40119095 103.56890594 192.5289444 103.59031677 193.69087219 C103.65576597 197.29775835 103.71467594 200.90471804 103.7734375 204.51171875 C103.81662711 206.95508577 103.86024154 209.39844531 103.90429688 211.84179688 C104.01144266 217.83585949 104.11321779 223.82999546 104.2109375 229.82421875 C104.65084518 229.37764923 105.09075287 228.93107971 105.54399109 228.47097778 C110.12592601 223.82264871 114.71840579 219.1849324 119.31713867 214.55322266 C121.03177967 212.82349969 122.7437179 211.09109313 124.45288086 209.35595703 C126.9107348 206.86169572 129.37816185 204.37726156 131.84765625 201.89453125 C132.60930588 201.11739777 133.37095551 200.34026428 134.15568542 199.5395813 C134.87605484 198.81898529 135.59642426 198.09838928 136.33862305 197.35595703 C137.28127266 196.40331467 137.28127266 196.40331467 138.2429657 195.431427 C141.98229775 192.37757973 145.77320228 191.50358416 150.5234375 191.38671875 C151.40644531 191.34675781 152.28945312 191.30679688 153.19921875 191.265625 C161.17826106 192.74552519 166.95822957 199.076473 172.4609375 204.63671875 C173.15445313 205.31025391 173.84796875 205.98378906 174.5625 206.67773438 C179.73474124 211.85492987 183.20521588 216.87869548 185.0234375 224.01171875 C186.75344788 228.10911175 189.10515041 230.13231359 193.2109375 231.82421875 C197.71636865 232.39142611 202.09275912 232.28345406 206.53515625 231.3203125 C216.34125005 229.50224839 227.56057512 229.53072696 236.2109375 234.82421875 C243.32322226 240.66751753 249.82407756 247.26756218 256.35473633 253.7434082 C257.32331139 254.7007687 258.29203545 255.65797846 259.26089478 256.61505127 C262.40049838 259.71859573 265.53489705 262.82736305 268.66796875 265.9375 C269.20433763 266.46992302 269.74070652 267.00234603 270.293329 267.55090308 C275.36459631 272.58581754 280.43337723 277.62322615 285.49718189 282.66564655 C291.93311369 289.07397479 298.3804379 295.47036088 304.84341985 301.85141021 C309.41222844 306.36427349 313.96740831 310.89061675 318.51293582 315.42692727 C321.21782604 318.125594 323.92819123 320.81813498 326.65354347 323.49614906 C329.21612872 326.01475163 331.76126037 328.54980756 334.29459 331.0978241 C335.65710279 332.45985723 337.03684387 333.80458971 338.41725159 335.14848328 C345.15145511 341.9729834 349.21797428 349.12344167 350.875 358.63671875 C350.85566406 360.21453125 350.85566406 360.21453125 350.8359375 361.82421875 C350.84882813 362.87609375 350.86171875 363.92796875 350.875 365.01171875 C348.5962284 378.09454862 341.39822137 385.59656877 332.25390625 394.46484375 C330.98156584 395.72410042 329.71078282 396.98493242 328.44148254 398.24725342 C325.12449335 401.53773625 321.78702508 404.80663314 318.44458008 408.07122803 C315.02640025 411.4173206 311.62837658 414.78375122 308.22851562 418.1484375 C301.57537317 424.72689655 294.90037989 431.28268955 288.2109375 437.82421875 C300.17803548 438.74250586 312.13637697 439.42752877 324.13195133 439.84489346 C329.70953739 440.04568068 335.2625432 440.31522994 340.82592773 440.76635742 C364.01811103 442.58775638 386.23740756 441.71472456 405.08913612 426.49943161 C422.71196123 410.79220139 426.76294409 392.72063638 428.26396614 370.14227015 C429.3357968 350.93563155 428.9310421 331.69692878 428.36658067 312.48074549 C428.13158021 304.39806487 427.99029005 296.31810488 427.90307617 288.23254395 C426.98069209 206.56906982 418.79849984 126.45926726 404.71670532 46.05784607 C404.59718691 45.37473226 404.47766849 44.69161846 404.35452831 43.98780423 C403.80133733 40.83396116 403.24109861 37.68160644 402.67060661 34.53084278 C402.47706156 33.44657348 402.2835165 32.36230417 402.08410645 31.24517822 C401.82969158 29.8451827 401.82969158 29.8451827 401.57013702 28.41690445 C401.2109375 25.82421875 401.2109375 25.82421875 401.2109375 20.82421875 C389.3309375 20.82421875 377.4509375 20.82421875 365.2109375 20.82421875 C365.23712158 24.94817139 365.26330566 29.07212402 365.2902832 33.32104492 C365.37305352 46.93160453 365.42858444 60.54216018 365.46999836 74.15290356 C365.49578042 82.40683507 365.53093071 90.66052816 365.58813477 98.91430664 C365.63797 106.10829318 365.67022851 113.30210706 365.68137997 120.49626142 C365.68789865 124.30563405 365.70321851 128.11451272 365.73958778 131.92372704 C365.77354978 135.50989602 365.78399045 139.09536806 365.77647591 142.68168259 C365.77850534 144.62385195 365.8053997 146.56594556 365.83303833 148.50791931 C365.77674699 158.00494877 365.77674699 158.00494877 362.86296082 161.08320618 C358.92944636 163.665498 356.06409932 163.95514214 351.45776367 163.98535156 C350.2761113 163.99495911 349.09445892 164.00456665 347.8769989 164.01446533 C346.59887833 164.01871521 345.32075775 164.02296509 344.00390625 164.02734375 C342.69061844 164.03304382 341.37733063 164.0387439 340.02424622 164.0446167 C337.24264133 164.05511713 334.46106527 164.06096581 331.67944336 164.06445312 C328.12525231 164.06993094 324.57144569 164.09394722 321.01737499 164.12242508 C317.6170597 164.14559746 314.21679639 164.14750428 310.81640625 164.15234375 C309.54435837 164.16469055 308.27231049 164.17703735 306.9617157 164.1897583 C305.17505241 164.18525665 305.17505241 164.18525665 303.35229492 164.18066406 C302.30877365 164.18430969 301.26525238 164.18795532 300.19010925 164.19171143 C296.63578825 163.7532718 294.26254779 162.67803229 291.2109375 160.82421875 C288.54257339 156.82167259 288.3769137 153.53108576 289.2109375 148.82421875 C291.39252895 146.06852428 293.08271244 144.38833128 296.2109375 142.82421875 C297.75321606 142.73430783 299.29934645 142.70664914 300.84423828 142.71069336 C302.28550583 142.71080666 302.28550583 142.71080666 303.75588989 142.71092224 C304.79550873 142.71608353 305.83512756 142.72124481 306.90625 142.7265625 C307.96883026 142.72797745 309.03141052 142.7293924 310.12619019 142.73085022 C313.52946759 142.73646041 316.93267988 142.74901466 320.3359375 142.76171875 C322.63932197 142.76673244 324.94270747 142.77129557 327.24609375 142.77539062 C332.90106399 142.78643315 338.55599609 142.80318123 344.2109375 142.82421875 C344.20817212 142.14522491 344.20540674 141.46623106 344.20255756 140.76666164 C344.13625587 124.23238236 344.08663659 107.69814528 344.05550098 91.163764 C344.04004318 83.16780251 344.0189745 75.17192986 343.98461914 67.17602539 C343.95468344 60.20542339 343.9353546 53.23488574 343.92867202 46.26422125 C343.9247668 42.57452875 343.91561184 38.8850203 343.89374733 35.19538689 C343.86951616 31.07280241 343.86897018 26.95053635 343.87036133 22.82788086 C343.85418259 21.00015892 343.85418259 21.00015892 343.837677 19.13551331 C343.86024688 12.95831263 344.02519244 8.20118646 347.2109375 2.82421875 C350.74062706 0.47109238 352.25481507 0.55711573 356.43896484 0.51782227 C358.36644058 0.49384117 358.36644058 0.49384117 360.33285522 0.46937561 C361.73752445 0.46299891 363.14219844 0.45760617 364.546875 0.453125 C365.98792617 0.44415745 367.42897638 0.43503558 368.87002563 0.42576599 C371.89123801 0.40927661 374.91233959 0.40157605 377.93359375 0.39868164 C381.79980074 0.39329879 385.66496238 0.35562467 389.53087425 0.30993748 C392.50780004 0.28015277 395.48447458 0.2729578 398.46153641 0.27195549 C399.88648897 0.26775562 401.31144244 0.25533035 402.73624802 0.23443794 C404.73202653 0.20750366 406.72818295 0.2154592 408.72412109 0.22485352 C410.42597061 0.21724754 410.42597061 0.21724754 412.16220093 0.20948792 C416.42660394 1.06933919 417.70353695 2.25801692 420.2109375 5.82421875 C421.28709271 9.47762173 421.74380898 13.16085253 422.21191406 16.93432617 C422.53405831 19.21059391 422.85940192 21.48641072 423.18762207 23.7618103 C423.35280838 24.93443295 423.51799469 26.10705559 423.68818665 27.31521225 C424.51157676 32.84228358 425.55356347 38.32388077 426.59277344 43.8137207 C429.63831148 60.21368768 432.38537052 76.65691748 434.9609375 93.13671875 C435.08224942 93.91182108 435.20356134 94.68692341 435.32854939 95.48551369 C445.90877689 163.39074567 447.24182569 231.05342183 447.09224129 299.67952299 C447.08592308 303.58312795 447.08573935 307.4866841 447.0877533 311.39029312 C447.09530147 327.52125306 447.02111117 343.64923319 446.85799551 359.77936101 C446.82832472 363.22291471 446.81297747 366.66626429 446.80142593 370.10992241 C446.78058264 375.46564429 446.71446988 380.81892568 446.612391 386.17369783 C446.58190912 388.11907882 446.56613602 390.06475779 446.5665946 392.01037753 C446.55217371 408.4000757 446.55217371 408.4000757 440.90515137 414.76751709 C439.37097916 416.15433251 437.80638162 417.50835423 436.2109375 418.82421875 C434.70941304 420.34103016 433.22007176 421.87009435 431.74853516 423.41601562 C430.21002165 424.96099165 428.66876203 426.50323711 427.125 428.04296875 C425.88959976 429.27980408 425.88959976 429.27980408 424.62924194 430.54162598 C422.90786364 432.26367865 421.18524658 433.9844939 419.46142578 435.70410156 C416.81816417 438.34195572 414.18034903 440.98517319 411.54296875 443.62890625 C409.86230013 445.3089149 408.18132178 446.98861377 406.5 448.66796875 C405.71251373 449.45747925 404.92502747 450.24698975 404.11367798 451.0604248 C403.38216522 451.7887854 402.65065247 452.517146 401.89697266 453.26757812 C400.9350853 454.22827209 400.9350853 454.22827209 399.95376587 455.20837402 C396.56642908 458.34890719 394.52215557 459.07434028 390.01158237 459.07590103 C388.9282234 459.08111653 387.84486442 459.08633202 386.72867638 459.09170556 C385.53394941 459.08724412 384.33922244 459.08278267 383.10829163 459.07818604 C381.20982826 459.08286601 381.20982826 459.08286601 379.2730121 459.08764052 C375.7529889 459.09601472 372.23307368 459.0918514 368.71305001 459.08566809 C364.9195272 459.08115525 361.12602335 459.08812157 357.33250427 459.09362793 C349.89795398 459.10253635 342.463444 459.10059341 335.02889211 459.09480265 C328.98780394 459.09029151 322.9467271 459.08967088 316.90563774 459.09185028 C316.04683712 459.09215675 315.1880365 459.09246321 314.30321161 459.09277897 C312.55872913 459.0934184 310.81424666 459.09406682 309.06976419 459.09472415 C292.69883801 459.10043177 276.3279342 459.09386295 259.95701169 459.08312342 C245.9027264 459.07418911 231.84847415 459.07573812 217.79418945 459.08496094 C201.48461962 459.09565868 185.17506942 459.09988073 168.86549658 459.09373641 C167.1270154 459.09309929 165.38853421 459.09247055 163.65005302 459.09185028 C162.79462665 459.09154173 161.93920028 459.09123318 161.0578519 459.09091528 C155.02286249 459.08918673 148.98788551 459.09210691 142.95289803 459.09680939 C135.59983886 459.10241279 128.2468224 459.10091325 120.89376814 459.0902479 C117.14040896 459.08498364 113.38712105 459.08294722 109.63376236 459.0895462 C105.56930158 459.09658418 101.50502151 459.08819314 97.44056702 459.07818604 C96.24807077 459.08264748 95.05557452 459.08710892 93.82694203 459.09170556 C92.7409753 459.08649007 91.65500857 459.08127457 90.53613377 459.07590103 C89.12829179 459.07541397 89.12829179 459.07541397 87.69200855 459.07491708 C85.07624231 458.81060856 83.52177502 458.00586935 81.2109375 456.82421875 C78.72150698 457.66169786 78.72150698 457.66169786 76.2109375 458.82421875 C73.82484055 459.07869434 73.82484055 459.07869434 71.30438232 459.08491516 C70.34288773 459.09199997 69.38139313 459.09908478 68.39076233 459.10638428 C67.34754318 459.10390686 66.30432404 459.10142944 65.22949219 459.09887695 C63.56759102 459.10654335 63.56759102 459.10654335 61.87211609 459.11436462 C58.20895994 459.1282657 54.5459919 459.12730307 50.8828125 459.125 C48.33319021 459.12888735 45.78356856 459.1332221 43.23394775 459.13798523 C37.88754919 459.14544908 32.54121953 459.14529396 27.19482422 459.13989258 C21.03217375 459.13386175 14.86975212 459.14614294 8.70714068 459.16746265 C2.76177228 459.18726801 -3.18352585 459.19024436 -9.12892914 459.18672752 C-11.65022061 459.18723996 -14.17151579 459.19246304 -16.69278717 459.20253944 C-20.22538173 459.21492217 -23.75745243 459.20809997 -27.29003906 459.1965332 C-28.32516129 459.20417694 -29.36028351 459.21182068 -30.42677307 459.21969604 C-41.56584251 459.13937634 -49.53990974 455.97234595 -57.48046875 448.16015625 C-63.67192464 441.36352046 -66.88926459 434.19528647 -66.95019531 425.00512695 C-66.95980286 423.83323318 -66.9694104 422.66133942 -66.97930908 421.45393372 C-66.98355896 420.19038559 -66.98780884 418.92683746 -66.9921875 417.625 C-66.99788757 416.32024216 -67.00358765 415.01548431 -67.00946045 413.67118835 C-67.01995334 410.90814832 -67.0258065 408.14513722 -67.02929688 405.38208008 C-67.0347637 401.86296203 -67.05875952 398.34423438 -67.08726883 394.82523823 C-67.1105222 391.44600062 -67.11235373 388.06681337 -67.1171875 384.6875 C-67.1295343 383.43407303 -67.1418811 382.18064606 -67.15460205 380.88923645 C-67.13234148 372.07983789 -66.34849456 364.28574682 -60.6015625 357.26171875 C-60.07175781 356.60042969 -59.54195312 355.93914062 -58.99609375 355.2578125 C-58.59777344 354.78472656 -58.19945312 354.31164062 -57.7890625 353.82421875 C-59.44212873 350.37267769 -61.42994458 347.2820608 -63.5703125 344.1171875 C-67.44863726 336.82046752 -67.09574587 329.41428378 -67.08984375 321.33203125 C-67.09627144 319.38126175 -67.09627144 319.38126175 -67.10282898 317.39108276 C-67.1102617 314.64593412 -67.11002172 311.90091414 -67.10473633 309.15576172 C-67.09894903 305.66023544 -67.11586852 302.1652403 -67.139081 298.66980171 C-67.15746856 295.30719067 -67.15363081 291.94469212 -67.15234375 288.58203125 C-67.1615535 287.33801544 -67.17076324 286.09399963 -67.18025208 284.81228638 C-67.13387201 276.04101707 -66.32253311 268.25401616 -60.6015625 261.26171875 C-60.07175781 260.60042969 -59.54195312 259.93914062 -58.99609375 259.2578125 C-58.59777344 258.78472656 -58.19945312 258.31164062 -57.7890625 257.82421875 C-59.44212873 254.37267769 -61.42994458 251.2820608 -63.5703125 248.1171875 C-67.44863726 240.82046752 -67.09574587 233.41428378 -67.08984375 225.33203125 C-67.09412888 224.03151825 -67.098414 222.73100525 -67.10282898 221.39108276 C-67.1102617 218.64593412 -67.11002172 215.90091414 -67.10473633 213.15576172 C-67.09894903 209.66023544 -67.11586852 206.1652403 -67.139081 202.66980171 C-67.15746856 199.30719067 -67.15363081 195.94469212 -67.15234375 192.58203125 C-67.1615535 191.33801544 -67.17076324 190.09399963 -67.18025208 188.81228638 C-67.13387201 180.04101707 -66.32253311 172.25401616 -60.6015625 165.26171875 C-59.80685547 164.26978516 -59.80685547 164.26978516 -58.99609375 163.2578125 C-58.59777344 162.78472656 -58.19945312 162.31164062 -57.7890625 161.82421875 C-59.44212873 158.37267769 -61.42994458 155.2820608 -63.5703125 152.1171875 C-70.04612095 139.93353507 -67.92938218 122.30894701 -64.0390625 109.5234375 C-59.26502024 95.39525619 -53.29944554 82.66268626 -41.25 73.4921875 C-29.4176295 64.3128261 -29.4176295 64.3128261 -23.82324219 50.93261719 C-22.90384904 41.10025901 -23.45857733 31.11601056 -24.45419312 21.30636597 C-24.99685742 15.51013845 -24.92082594 10.81605792 -21.39266968 5.86444092 C-15.32036354 -0.618177 -8.3702419 -0.15287977 0 0 Z M-3.7890625 20.82421875 C-3.7890625 28.74421875 -3.7890625 36.66421875 -3.7890625 44.82421875 C10.4009375 44.82421875 24.5909375 44.82421875 39.2109375 44.82421875 C39.2109375 36.90421875 39.2109375 28.98421875 39.2109375 20.82421875 C25.0209375 20.82421875 10.8309375 20.82421875 -3.7890625 20.82421875 Z M-40.49609375 107.2421875 C-43.87566235 115.7090219 -45.95225612 122.81158167 -46.1640625 131.94921875 C-46.20333862 132.97160645 -46.20333862 132.97160645 -46.2434082 134.01464844 C-46.26013799 139.10298063 -44.97243681 141.91551864 -41.7890625 145.82421875 C-35.20667493 151.00609833 -29.39437355 150.97520499 -21.36816406 150.98535156 C-20.42604065 150.99031647 -19.48391724 150.99528137 -18.51324463 151.00039673 C-15.40205143 151.01497966 -12.29090924 151.02181413 -9.1796875 151.02734375 C-7.01121012 151.03309864 -4.84273274 151.03885633 -2.67425537 151.0446167 C1.87178789 151.05511586 6.41781352 151.06096554 10.96386719 151.06445312 C16.77533954 151.06993373 22.58657712 151.09395726 28.39797592 151.12242508 C32.87795685 151.14109347 37.35788172 151.14625931 41.83789825 151.147789 C43.9796095 151.15080686 46.12131997 151.15880595 48.26299286 151.17197418 C51.26632807 151.18912147 54.26909598 151.18713312 57.27246094 151.18066406 C58.14862061 151.18987885 59.02478027 151.19909363 59.92749023 151.20858765 C66.08286868 151.16727287 73.04659711 150.64443691 77.84008408 146.37224197 C83.00909196 140.29952326 82.74317284 134.55430865 82.39013672 126.92626953 C81.26306375 113.70542722 75.38457728 102.65268939 67.27612305 92.46875 C65.81376003 90.59615085 64.39600301 88.68832071 63.01098633 86.7578125 C55.09371154 75.80953069 46.22838471 65.58888929 32.51559448 62.65652466 C-2.97558902 56.95617843 -25.24383114 76.70276008 -40.49609375 107.2421875 Z M-42.7265625 176.57421875 C-46.87720242 183.11462105 -47.09749835 189.2737071 -47.08984375 196.81640625 C-47.09412888 197.76178253 -47.098414 198.70715881 -47.10282898 199.68118286 C-47.1085493 201.67302656 -47.10908956 203.66489113 -47.10473633 205.65673828 C-47.10157943 208.68298465 -47.12505402 211.70824942 -47.15039062 214.734375 C-47.15266436 216.6783842 -47.15336677 218.62239599 -47.15234375 220.56640625 C-47.1615535 221.46044159 -47.17076324 222.35447693 -47.18025208 223.27560425 C-47.13475417 229.54019143 -46.57487107 236.3445503 -42.51411438 241.41671753 C-36.39339614 246.9977914 -28.94381241 247.12091696 -21.14111328 247.09887695 C-19.72749008 247.10654335 -19.72749008 247.10654335 -18.28530884 247.11436462 C-15.18493208 247.12820953 -12.08477891 247.12730762 -8.984375 247.125 C-6.81875527 247.12888984 -4.6531363 247.13322511 -2.48751831 247.13798523 C2.04659501 247.14543657 6.58063044 247.1451641 11.11474609 247.13989258 C16.91048839 247.1341007 22.70591083 247.15102764 28.50160027 247.17423725 C32.97301074 247.18900574 37.44434475 247.18984202 41.9157753 247.18672752 C44.05189777 247.18723921 46.18802469 247.19244811 48.32412338 247.20253944 C51.3176903 247.2149463 54.31064135 247.20808648 57.30419922 247.1965332 C58.61372559 247.20799881 58.61372559 247.20799881 59.94970703 247.21969604 C66.0946855 247.16756668 73.05583538 246.63586928 77.84020805 242.37230396 C81.23734944 238.38071707 82.3340657 235.86192817 82.38793945 230.73535156 C82.40077469 229.67374817 82.41360992 228.61214478 82.42683411 227.51837158 C82.43422104 226.3663324 82.44160797 225.21429321 82.44921875 224.02734375 C82.46132637 222.25505402 82.46132637 222.25505402 82.47367859 220.44696045 C82.4875292 217.94186881 82.49824696 215.43675823 82.50610352 212.93164062 C82.52330456 209.10380154 82.56718237 205.27682851 82.61132812 201.44921875 C82.6214558 199.01693344 82.62997167 196.58464078 82.63671875 194.15234375 C82.66298088 192.43643036 82.66298088 192.43643036 82.68977356 190.68585205 C82.67271122 184.42089092 82.49739928 180.54199513 78.2109375 175.82421875 C71.62854993 170.64233917 65.81624855 170.67323251 57.79003906 170.66308594 C56.84791565 170.65812103 55.90579224 170.65315613 54.93511963 170.64804077 C51.82392643 170.63345784 48.71278424 170.62662337 45.6015625 170.62109375 C43.43308512 170.61533886 41.26460774 170.60958117 39.09613037 170.6038208 C34.55008711 170.59332164 30.00406148 170.58747196 25.45800781 170.58398438 C19.64653546 170.57850377 13.83529788 170.55448024 8.02389908 170.52601242 C3.54391815 170.50734403 -0.93600672 170.50217819 -5.41602325 170.5006485 C-7.5577345 170.49763064 -9.69944497 170.48963155 -11.84111786 170.47646332 C-14.84445307 170.45931603 -17.84722098 170.46130438 -20.85058594 170.46777344 C-21.72674561 170.45855865 -22.60290527 170.44934387 -23.50561523 170.43984985 C-30.3614166 170.48586585 -37.86867925 171.24176869 -42.7265625 176.57421875 Z M148.38230896 215.53259277 C147.18650963 216.73172302 147.18650963 216.73172302 145.96655273 217.95507812 C144.61526527 219.30647888 144.61526527 219.30647888 143.23667908 220.68518066 C142.24757672 221.67939055 141.25852874 222.67365454 140.26953125 223.66796875 C139.26226695 224.67709712 138.25478236 225.68600566 137.24708557 226.69470215 C134.58984059 229.35577322 131.93561165 232.01983321 129.28198242 234.68450928 C126.57585787 237.400846 123.86691558 240.11436934 121.15820312 242.828125 C115.83967316 248.15739389 110.52432368 253.48982087 105.2109375 258.82421875 C106.16041309 259.94099367 107.11118647 261.05666529 108.0625 262.171875 C108.59182129 262.79328369 109.12114258 263.41469238 109.66650391 264.05493164 C111.42759143 266.07241525 113.28082342 267.96833983 115.2109375 269.82421875 C118.6577075 268.34078875 120.88437051 266.39371687 123.52050781 263.74169922 C124.781362 262.48061844 124.781362 262.48061844 126.06768799 261.19406128 C126.96574158 260.28568512 127.86379517 259.37730896 128.7890625 258.44140625 C130.17892365 257.04730026 130.17892365 257.04730026 131.59686279 255.62503052 C134.05409539 253.16018025 136.50526111 250.68938209 138.9552002 248.21728516 C141.45867559 245.6933111 143.96785813 243.17502487 146.4765625 240.65625 C151.39361275 235.71778278 156.30427538 230.77300675 161.2109375 225.82421875 C159.61370568 222.4393449 157.83273149 220.20492429 155.1484375 217.57421875 C154.07916016 216.51460937 154.07916016 216.51460937 152.98828125 215.43359375 C150.67694463 213.26163685 150.67694463 213.26163685 148.38230896 215.53259277 Z M172.2109375 243.82421875 C160.0009375 256.03421875 147.7909375 268.24421875 135.2109375 280.82421875 C136.62345512 283.64925399 137.97945889 286.04477974 139.7109375 288.63671875 C145.99769403 298.78083622 145.17765537 310.29401802 142.60546875 321.58203125 C141.65523377 326.98237659 142.60958687 331.49149739 145.77480888 336.02767181 C149.06008502 340.13743797 152.88644566 343.76598892 156.61352539 347.46972656 C157.57517478 348.43245019 158.53639073 349.39560692 159.49720764 350.35916138 C162.09583864 352.96261964 164.70064355 355.55981756 167.30676961 358.1557703 C170.03662304 360.87681294 172.7611757 363.60315389 175.48643494 366.32879639 C180.06022568 370.90165215 184.63786406 375.47062701 189.21801758 380.03710938 C194.51324058 385.31658516 199.80319677 390.60129137 205.09018523 395.88901258 C210.72317057 401.52267316 216.3599552 407.15252045 221.9978683 412.78124905 C223.62137419 414.40262382 225.2441684 416.02470801 226.86680794 417.64694977 C229.41466859 420.19380633 231.96506298 422.73809861 234.51744652 425.28042221 C235.90091205 426.65957188 237.28194154 428.04116385 238.66290283 429.42282104 C239.48583328 430.24148651 240.30876373 431.06015198 241.15663147 431.90362549 C241.87135652 432.61667469 242.58608156 433.32972389 243.32246494 434.06438065 C246.17979212 436.72707925 248.39648323 438.19508909 252.2734375 438.51171875 C256.61888004 438.31935248 258.50635236 437.10698235 261.64257812 434.14770508 C262.51640137 433.32686432 263.39022461 432.50602356 264.29052734 431.66030884 C265.26591113 430.71692011 266.23929112 429.77145638 267.2109375 428.82421875 C267.72694519 428.32301388 268.24295288 427.82180901 268.77459717 427.30541611 C272.96360028 423.2237223 277.10535145 419.09539001 281.2421875 414.9609375 C282.56824794 413.63809741 283.89438043 412.31532955 285.22058105 410.99263 C287.97889837 408.24025687 290.73518588 405.48586953 293.49023438 402.73022461 C297.02023368 399.20012292 300.55711007 395.67699719 304.09571075 392.15552044 C306.82714046 389.43519341 309.55402919 386.71034968 312.27964783 383.98420143 C313.58259259 382.68243559 314.88715666 381.3822884 316.19337463 380.08380699 C318.01194971 378.27501417 319.82409806 376.46001431 321.63476562 374.64331055 C322.17290894 374.11078674 322.71105225 373.57826294 323.26550293 373.02960205 C326.88740065 369.37689808 328.79912884 366.69607628 329.8984375 361.69921875 C329.12673779 357.34963859 328.21283981 356.35210487 325.27488708 353.19703674 C324.04443318 351.87268458 324.04443318 351.87268458 322.78912163 350.52157784 C318.74411457 346.28959284 314.64466913 342.11871876 310.50024414 337.98413086 C309.57555328 337.05768768 308.65086243 336.13124451 307.69815063 335.17672729 C305.19474242 332.66881552 302.68824896 330.1640099 300.18099141 327.65994716 C297.54724787 325.02875818 294.91597068 322.3951045 292.2842865 319.76185608 C287.87580682 315.35156624 283.46524276 310.94336922 279.0534668 306.53637695 C273.9521431 301.44052074 268.85446814 296.34103571 263.75862032 291.23970407 C259.37132248 286.84787433 254.98208679 282.45798843 250.59121221 278.06973463 C247.97341193 275.45349323 245.35629192 272.83658095 242.74092293 270.21790886 C239.83542307 267.30899432 236.92586984 264.40416787 234.01586914 261.49975586 C233.14887894 260.63074142 232.28188873 259.76172699 231.3886261 258.86637878 C230.59953857 258.08011108 229.81045105 257.29384338 228.99745178 256.48374939 C228.31042207 255.7970967 227.62339235 255.11044401 226.91554356 254.40298367 C223.80697558 251.52390317 221.53742913 251.68901162 217.3984375 251.69921875 C216.36074219 251.69664062 215.32304687 251.6940625 214.25390625 251.69140625 C211.29993297 251.74015135 211.29993297 251.74015135 208.80859375 252.31640625 C194.54591444 255.1045992 184.18864453 251.80935677 172.2109375 243.82421875 Z M-42.7265625 272.57421875 C-46.87720242 279.11462105 -47.09749835 285.2737071 -47.08984375 292.81640625 C-47.09412888 293.76178253 -47.098414 294.70715881 -47.10282898 295.68118286 C-47.1085493 297.67302656 -47.10908956 299.66489113 -47.10473633 301.65673828 C-47.10157943 304.68298465 -47.12505402 307.70824942 -47.15039062 310.734375 C-47.15266436 312.6783842 -47.15336677 314.62239599 -47.15234375 316.56640625 C-47.1615535 317.46044159 -47.17076324 318.35447693 -47.18025208 319.27560425 C-47.13475417 325.54019143 -46.57487107 332.3445503 -42.51411438 337.41671753 C-36.39339614 342.9977914 -28.94381241 343.12091696 -21.14111328 343.09887695 C-19.72749008 343.10654335 -19.72749008 343.10654335 -18.28530884 343.11436462 C-15.18493208 343.12820953 -12.08477891 343.12730762 -8.984375 343.125 C-6.81875527 343.12888984 -4.6531363 343.13322511 -2.48751831 343.13798523 C2.04659501 343.14543657 6.58063044 343.1451641 11.11474609 343.13989258 C16.91048839 343.1341007 22.70591083 343.15102764 28.50160027 343.17423725 C32.97301074 343.18900574 37.44434475 343.18984202 41.9157753 343.18672752 C44.05189777 343.18723921 46.18802469 343.19244811 48.32412338 343.20253944 C51.3176903 343.2149463 54.31064135 343.20808648 57.30419922 343.1965332 C58.61372559 343.20799881 58.61372559 343.20799881 59.94970703 343.21969604 C66.0946855 343.16756668 73.05583538 342.63586928 77.84020805 338.37230396 C81.23734944 334.38071707 82.3340657 331.86192817 82.38793945 326.73535156 C82.40077469 325.67374817 82.41360992 324.61214478 82.42683411 323.51837158 C82.43422104 322.3663324 82.44160797 321.21429321 82.44921875 320.02734375 C82.46132637 318.25505402 82.46132637 318.25505402 82.47367859 316.44696045 C82.4875292 313.94186881 82.49824696 311.43675823 82.50610352 308.93164062 C82.52330456 305.10380154 82.56718237 301.27682851 82.61132812 297.44921875 C82.6214558 295.01693344 82.62997167 292.58464078 82.63671875 290.15234375 C82.66298088 288.43643036 82.66298088 288.43643036 82.68977356 286.68585205 C82.67271122 280.42089092 82.49739928 276.54199513 78.2109375 271.82421875 C71.62854993 266.64233917 65.81624855 266.67323251 57.79003906 266.66308594 C56.84791565 266.65812103 55.90579224 266.65315613 54.93511963 266.64804077 C51.82392643 266.63345784 48.71278424 266.62662337 45.6015625 266.62109375 C43.43308512 266.61533886 41.26460774 266.60958117 39.09613037 266.6038208 C34.55008711 266.59332164 30.00406148 266.58747196 25.45800781 266.58398438 C19.64653546 266.57850377 13.83529788 266.55448024 8.02389908 266.52601242 C3.54391815 266.50734403 -0.93600672 266.50217819 -5.41602325 266.5006485 C-7.5577345 266.49763064 -9.69944497 266.48963155 -11.84111786 266.47646332 C-14.84445307 266.45931603 -17.84722098 266.46130438 -20.85058594 266.46777344 C-21.72674561 266.45855865 -22.60290527 266.44934387 -23.50561523 266.43984985 C-30.3614166 266.48586585 -37.86867925 267.24176869 -42.7265625 272.57421875 Z M103.2109375 287.82421875 C103.20879997 288.66747711 103.20879997 288.66747711 103.20661926 289.527771 C103.1867733 295.43419803 103.13218545 301.33961215 103.05834961 307.24560547 C103.03530099 309.44312242 103.02080508 311.64074778 103.01538086 313.83837891 C102.93771249 340.13808407 102.93771249 340.13808407 93.2109375 351.82421875 C94.36162595 354.13115454 95.51957353 356.43412285 96.68359375 358.734375 C97.20824219 359.77464844 97.73289063 360.81492187 98.2734375 361.88671875 C98.80066406 362.92957031 99.32789063 363.97242188 99.87109375 365.046875 C101.83449614 369.11678491 102.33971996 372.07014638 102.35620117 376.5456543 C102.36258102 377.72085129 102.36896088 378.89604828 102.37553406 380.1068573 C102.37664688 381.37870377 102.3777597 382.65055023 102.37890625 383.9609375 C102.38223465 385.26948196 102.38556305 386.57802643 102.38899231 387.92622375 C102.39498112 390.69944075 102.39683263 393.4726266 102.39624023 396.24584961 C102.396139 399.78182269 102.40975242 403.31759324 102.42701244 406.85351849 C102.44088225 410.24349413 102.44022347 413.6334339 102.44140625 417.0234375 C102.44859177 418.28516281 102.45577728 419.54688812 102.46318054 420.84684753 C102.46010391 422.03780533 102.45702728 423.22876312 102.45385742 424.45581055 C102.45528244 425.49489059 102.45670746 426.53397064 102.45817566 427.60453796 C102.2109375 430.82421875 102.2109375 430.82421875 100.2109375 438.82421875 C139.1509375 438.82421875 178.0909375 438.82421875 218.2109375 438.82421875 C213.42119971 433.19634983 213.42119971 433.19634983 208.37205505 427.89872742 C207.67265808 427.20518158 206.97326111 426.51163574 206.25267029 425.79707336 C205.50598587 425.06183945 204.75930145 424.32660553 203.98999023 423.5690918 C203.18759918 422.77458618 202.38520813 421.98008057 201.5585022 421.16149902 C199.82603955 419.4461578 198.09254497 417.7318583 196.35812187 416.01849937 C192.18626741 411.89434828 188.02608817 407.75845919 183.8643018 403.62415278 C177.4906712 397.29335425 171.11254582 390.96719022 164.7199707 384.65551758 C159.92951166 379.92557896 155.15248449 375.18242823 150.38279915 370.43152809 C148.56891603 368.62935477 146.75051587 366.83171559 144.92745781 365.03882408 C142.37403582 362.52660295 139.83677198 359.99903771 137.30249023 357.4675293 C136.55378159 356.73836807 135.80507294 356.00920685 135.03367615 355.25794983 C127.1697782 347.33277151 122.694912 338.2048299 121.9609375 327.01171875 C122.03839386 323.71982324 122.58133214 320.61569482 123.2109375 317.38671875 C125.01885204 308.21315466 125.01885204 308.21315466 122.4609375 299.51171875 C121.7184375 298.62484375 120.9759375 297.73796875 120.2109375 296.82421875 C119.6746875 296.10234375 119.1384375 295.38046875 118.5859375 294.63671875 C115.46297813 292.25340765 112.32681066 291.500457 108.55078125 290.53515625 C106.2109375 289.82421875 106.2109375 289.82421875 103.2109375 287.82421875 Z M-42.7265625 368.57421875 C-46.87720242 375.11462105 -47.09749835 381.2737071 -47.08984375 388.81640625 C-47.09412888 389.76178253 -47.098414 390.70715881 -47.10282898 391.68118286 C-47.1085493 393.67302656 -47.10908956 395.66489113 -47.10473633 397.65673828 C-47.10157943 400.68298465 -47.12505402 403.70824942 -47.15039062 406.734375 C-47.15266436 408.6783842 -47.15336677 410.62239599 -47.15234375 412.56640625 C-47.1615535 413.46044159 -47.17076324 414.35447693 -47.18025208 415.27560425 C-47.13475417 421.54019143 -46.57487107 428.3445503 -42.51411438 433.41671753 C-36.39339614 438.9977914 -28.94381241 439.12091696 -21.14111328 439.09887695 C-19.72749008 439.10654335 -19.72749008 439.10654335 -18.28530884 439.11436462 C-15.18493208 439.12820953 -12.08477891 439.12730762 -8.984375 439.125 C-6.81875527 439.12888984 -4.6531363 439.13322511 -2.48751831 439.13798523 C2.04659501 439.14543657 6.58063044 439.1451641 11.11474609 439.13989258 C16.91048839 439.1341007 22.70591083 439.15102764 28.50160027 439.17423725 C32.97301074 439.18900574 37.44434475 439.18984202 41.9157753 439.18672752 C44.05189777 439.18723921 46.18802469 439.19244811 48.32412338 439.20253944 C51.3176903 439.2149463 54.31064135 439.20808648 57.30419922 439.1965332 C58.61372559 439.20799881 58.61372559 439.20799881 59.94970703 439.21969604 C66.0946855 439.16756668 73.05583538 438.63586928 77.84020805 434.37230396 C81.23734944 430.38071707 82.3340657 427.86192817 82.38793945 422.73535156 C82.40077469 421.67374817 82.41360992 420.61214478 82.42683411 419.51837158 C82.43422104 418.3663324 82.44160797 417.21429321 82.44921875 416.02734375 C82.46132637 414.25505402 82.46132637 414.25505402 82.47367859 412.44696045 C82.4875292 409.94186881 82.49824696 407.43675823 82.50610352 404.93164062 C82.52330456 401.10380154 82.56718237 397.27682851 82.61132812 393.44921875 C82.6214558 391.01693344 82.62997167 388.58464078 82.63671875 386.15234375 C82.66298088 384.43643036 82.66298088 384.43643036 82.68977356 382.68585205 C82.67271122 376.42089092 82.49739928 372.54199513 78.2109375 367.82421875 C71.62854993 362.64233917 65.81624855 362.67323251 57.79003906 362.66308594 C56.84791565 362.65812103 55.90579224 362.65315613 54.93511963 362.64804077 C51.82392643 362.63345784 48.71278424 362.62662337 45.6015625 362.62109375 C43.43308512 362.61533886 41.26460774 362.60958117 39.09613037 362.6038208 C34.55008711 362.59332164 30.00406148 362.58747196 25.45800781 362.58398438 C19.64653546 362.57850377 13.83529788 362.55448024 8.02389908 362.52601242 C3.54391815 362.50734403 -0.93600672 362.50217819 -5.41602325 362.5006485 C-7.5577345 362.49763064 -9.69944497 362.48963155 -11.84111786 362.47646332 C-14.84445307 362.45931603 -17.84722098 362.46130438 -20.85058594 362.46777344 C-21.72674561 362.45855865 -22.60290527 362.44934387 -23.50561523 362.43984985 C-30.3614166 362.48586585 -37.86867925 363.24176869 -42.7265625 368.57421875 Z " fill="#ffffff" transform="translate(66.7890625,26.17578125)"/>
<path d="M0 0 C2.8100346 1.79363911 4.50940468 3.01880935 6 6 C6.11955334 8.93287358 6.17840419 11.84270337 6.19287109 14.77661133 C6.20104858 15.68570755 6.20922607 16.59480377 6.21765137 17.53144836 C6.24252079 20.54830257 6.25902482 23.5651097 6.2734375 26.58203125 C6.27876118 27.61101721 6.28408485 28.64000317 6.28956985 29.70017052 C6.31630741 35.14589061 6.3356809 40.59158773 6.35009766 46.03735352 C6.36675237 51.66674869 6.41153559 57.2955592 6.4624691 62.92473316 C6.49609742 67.24928981 6.50767024 71.5737069 6.51332474 75.89838219 C6.52004878 77.97365477 6.53530062 80.04891781 6.55921555 82.12406349 C6.59077669 85.0282645 6.59091745 87.93087814 6.58349609 90.83520508 C6.59990143 91.69305603 6.61630676 92.55090698 6.63320923 93.43475342 C6.58774752 97.77907095 6.40919183 99.47734217 3.64321899 103.01029968 C0.5244096 105.35800377 -1.09805268 106 -5 106 C-9.34986291 104.5500457 -11.4325645 103.85115325 -14 100 C-14.20550948 97.00624074 -14.29368251 94.10474277 -14.29052734 91.10986328 C-14.29724457 90.20062103 -14.30396179 89.29137878 -14.31088257 88.35458374 C-14.32991005 85.34310469 -14.33378919 82.33184795 -14.3359375 79.3203125 C-14.34236225 77.22907417 -14.34909036 75.13783676 -14.35610962 73.04660034 C-14.36809436 68.6601147 -14.37178922 64.27370789 -14.37060547 59.88720703 C-14.37040224 54.26574787 -14.39770316 48.64479405 -14.43214989 43.02345467 C-14.45438538 38.70317258 -14.45844403 34.38301274 -14.45738602 30.06267929 C-14.45974708 27.99022556 -14.4685989 25.91776872 -14.48405075 23.84537125 C-14.50364222 20.94619604 -14.49789942 18.04811859 -14.48583984 15.14892578 C-14.49707886 14.29264587 -14.50831787 13.43636597 -14.51989746 12.55413818 C-14.47706237 8.50259671 -14.31308908 6.49448868 -12.09463501 2.99069214 C-8.45813663 -0.46535089 -4.86132652 -0.69846645 0 0 Z " fill="#ffffff" transform="translate(466,230)"/>
<path d="M0 0 C5.57894737 3.15789474 5.57894737 3.15789474 7 6 C7.42071592 9.05920574 7.48514117 11.9467746 7 15 C4.81840855 17.75569447 3.12822506 19.43588747 0 21 C-4.65408901 21.4136968 -7.25239476 20.81070393 -11 18 C-13.66836411 13.99745384 -13.8340238 10.70686701 -13 6 C-9.08606917 1.05608737 -6.27104539 -0.60298513 0 0 Z " fill="#ffffff" transform="translate(329,169)"/>
<path d="M0 0 C2.8100346 1.79363911 4.50940468 3.01880935 6 6 C6.65753556 10.78122289 6.71680862 13.98803489 3.875 18 C0.62399027 20.26157198 -1.04509656 21 -5 21 C-9.34986291 19.5500457 -11.4325645 18.85115325 -14 15 C-14.73965025 10.40728797 -14.60961194 6.97537911 -12.125 3 C-8.46188547 -0.44763721 -4.88098361 -0.70129075 0 0 Z " fill="#ffffff" transform="translate(466,355)"/>
</svg>
