<svg width="1213" height="992" viewBox="0 0 1213 992" fill="none" xmlns="http://www.w3.org/2000/svg">
<path fill-rule="evenodd" clip-rule="evenodd" d="M538.139 0H674.722V3.44898C674.722 40.0938 666.237 76.595 669.714 123.587C669.714 137.526 668.046 134.077 673.054 148.017C676.393 154.915 676.393 160.232 674.722 168.854C673.054 181.069 676.393 196.733 681.398 208.948C683.069 212.397 684.737 219.438 688.076 224.612C696.56 240.276 740.373 240.276 757.201 240.276C839.819 240.276 767.354 296.034 873.479 327.362C932.451 339.577 922.437 391.884 981.409 400.508C989.894 402.232 1067.37 409.273 1065.7 410.997C1064.03 414.447 1006.73 412.723 998.241 416.171C988.088 421.344 994.901 430.112 999.909 435.283C1023.55 461.44 1055.55 470.061 1087.53 463.163C1112.85 456.266 1129.68 445.774 1153.32 463.163C1161.81 468.337 1165.14 468.337 1173.49 471.928C1178.5 473.654 1178.5 475.378 1176.83 475.378C1178.5 473.654 1175.16 473.654 1173.49 473.654C1161.67 473.654 1156.66 470.204 1148.18 464.887C1136.35 457.989 1126.2 457.989 1114.52 461.44H1112.85C1087.53 468.337 1077.38 477.102 1048.73 473.654C1020.08 470.204 998.1 454.542 976.264 437.01C966.111 426.518 954.287 414.303 942.604 403.956C934.12 397.058 927.444 390.017 918.959 381.252C912.284 376.078 905.467 369.037 898.792 362.137C876.818 343.024 859.987 349.922 834.674 344.751C831.334 343.024 829.666 344.751 829.666 348.198C827.998 356.966 839.819 365.587 846.495 369.037C853.173 372.485 858.318 372.485 864.994 375.935C878.486 381.106 891.978 393.321 898.654 405.536C900.322 407.262 907.138 419.477 907.138 419.477C907.138 422.925 903.799 422.925 902.131 421.201C898.792 417.751 893.646 407.262 890.307 402.088C881.823 393.321 870.139 384.7 856.65 381.252C846.495 379.526 839.819 379.526 829.666 372.485C816.174 363.72 809.499 353.372 804.353 339.433C799.346 327.218 797.675 327.218 789.19 318.594C765.545 297.758 736.896 285.543 704.904 292.441C684.737 295.891 706.573 308.106 713.389 315.147C723.542 325.638 721.874 329.086 721.874 341.301C720.205 353.515 733.695 358.689 743.85 362.137C759.01 369.037 775.839 376.078 790.999 381.252C846.635 402.088 895.593 449.225 930.921 477.102C952.898 494.491 961.242 499.808 988.226 497.941C1005.05 497.941 1013.54 499.665 1028.7 501.388C1038.85 503.112 1047.2 501.388 1054.01 510.156C1064.17 522.371 1082.67 538.033 1096.16 543.207C1106.31 546.655 1114.66 546.655 1124.81 546.655C1138.3 544.931 1150.12 544.931 1163.62 543.207C1177.11 541.483 1192.27 541.483 1204.09 541.483C1217.58 541.483 1214.24 544.931 1204.09 546.655C1182.11 550.105 1163.62 553.555 1141.64 558.87C1107.98 565.77 1096.16 560.596 1065.7 543.207C1055.55 538.033 1047.2 532.716 1038.71 527.542C1001.58 504.839 981.409 538.033 932.451 513.603C934.12 524.095 939.127 548.381 945.943 557.146C954.428 565.913 967.92 567.637 977.932 565.913C994.763 564.187 1008.26 557.146 1026.89 565.913C1033.57 569.361 1040.38 578.128 1048.87 583.299C1064.03 595.517 1075.85 593.791 1094.35 595.514C1096.02 595.514 1101.03 597.241 1101.03 598.965C1099.36 600.688 1092.54 600.688 1090.87 600.688C1070.71 598.965 1060.55 600.688 1041.91 586.75C1030.09 576.258 1023.42 567.637 1006.45 571.085C996.294 572.811 986.279 577.985 977.794 583.299C964.302 590.2 971.119 593.791 979.463 600.688C987.947 607.586 997.962 616.354 1008.11 619.801C1013.12 619.801 1014.79 621.527 1019.94 623.251C1028.42 626.699 1033.43 628.425 1040.11 633.742C1044.56 637.19 1049.05 640.113 1053.6 642.507C1060.27 645.957 1067.09 649.405 1073.77 651.275C1080.44 654.722 1088.93 658.172 1095.74 661.763C1104.22 666.937 1112.57 670.531 1122.72 675.705C1134.54 682.602 1144.7 682.602 1156.38 684.469C1168.2 686.193 1176.55 691.367 1186.7 696.684C1191.71 701.858 1198.53 707.176 1203.53 712.349C1206.87 715.797 1205.2 719.247 1198.53 714.073C1191.85 708.899 1190.04 705.306 1181.7 700.135C1168.2 693.237 1164.87 689.643 1148.04 689.643C1136.22 687.919 1127.87 687.92 1116.05 682.746C1105.89 677.572 1094.07 675.848 1082.39 672.254C1072.24 667.081 1060.41 663.49 1048.73 660.039C1040.24 656.592 1038.58 654.865 1033.57 647.824C1028.56 642.651 1021.74 642.651 1016.74 649.548C1011.73 654.722 1011.73 660.039 1013.4 666.937C1016.74 672.111 1020.08 677.428 1025.22 680.876C1030.23 684.326 1042.05 687.776 1048.87 689.643C1062.36 694.817 1074.18 703.582 1084.34 714.073C1089.34 720.971 1091.01 722.838 1094.49 731.462C1094.49 731.462 1097.83 736.636 1097.83 738.36C1097.83 741.807 1094.49 738.36 1092.82 736.636C1091.15 733.186 1089.48 727.868 1086.14 724.421C1075.99 712.206 1065.98 703.582 1050.68 698.265C1042.19 694.817 1033.85 693.091 1023.69 689.5C1013.54 686.05 1005.19 679.009 1000.05 668.661C991.565 656.446 996.71 649.548 983.218 637.333C973.065 630.436 969.726 628.568 959.573 623.395C956.237 621.671 952.898 619.947 951.089 618.221C866.803 555.566 915.623 475.378 769.023 433.559C748.855 435.283 730.217 435.283 710.05 437.01C752.194 517.197 856.788 471.785 878.624 585.026C887.109 628.568 900.601 682.602 934.26 710.48L935.929 712.206C946.081 720.971 952.76 724.421 964.581 727.868C971.257 729.592 976.405 733.042 983.08 734.766C989.756 738.216 998.241 741.664 1005.05 745.257C1023.55 754.022 1028.7 759.196 1032.04 780.035C1037.05 802.738 1052.21 807.912 1069.17 820.127C1074.18 825.301 1087.67 842.833 1091.15 851.455C1092.82 856.629 1074.32 840.964 1072.65 839.24C1062.5 830.475 1057.49 827.025 1045.67 820.127C1027.17 807.912 1023.69 806.189 1018.69 781.759C1013.68 764.37 1003.53 759.053 986.695 753.879C976.542 750.431 968.196 746.981 956.375 746.981C936.207 745.257 926.054 738.216 910.894 724.275C907.555 722.551 905.887 720.827 902.409 724.275C899.07 731.175 900.738 739.94 904.078 745.114C907.417 750.288 915.901 757.329 919.238 762.503C929.391 774.718 931.062 779.889 934.398 795.554C937.737 811.219 941.074 814.667 949.558 826.882C949.558 828.605 954.566 837.373 951.229 837.373C949.558 839.096 944.551 830.475 944.551 828.605C936.069 814.667 932.73 812.943 927.723 795.554C924.383 781.615 922.715 774.718 912.562 765.95C900.738 755.459 890.586 752.012 885.578 734.623C882.242 720.684 885.578 708.469 880.571 692.804C878.903 682.313 873.895 675.415 870.418 664.927C861.933 644.087 856.926 623.108 851.921 602.269C848.582 609.169 845.243 614.484 838.429 621.384C835.09 626.555 829.945 631.872 826.606 638.77C806.438 675.415 831.613 687.487 846.773 713.643C868.75 748.418 838.289 772.848 833.281 805.902V814.667C834.952 825.158 838.289 839.096 843.437 845.994C856.926 866.833 863.604 875.598 860.265 901.752C860.265 886.089 858.597 879.048 850.112 866.977C836.62 844.27 833.281 853.035 826.468 823.434C819.792 802.595 826.468 785.063 833.143 765.95C843.296 739.797 836.483 725.858 819.651 705.019C762.347 635.323 882.101 584.883 814.644 537.746C796.147 527.255 779.178 520.358 759.01 515.04C754.003 515.04 752.335 518.49 750.526 521.938C738.702 544.644 753.862 553.265 764.018 570.654C774.171 584.593 777.507 593.36 779.178 610.749C780.846 614.197 782.515 635.179 780.846 636.903C780.846 640.353 779.178 636.903 777.507 635.179C775.839 630.005 775.839 619.514 774.171 612.473C772.502 601.982 769.163 593.36 764.018 584.593C759.01 574.104 755.533 570.654 747.187 561.89C735.366 549.675 732.026 544.501 730.358 527.112C728.687 520.214 727.019 507.999 720.205 504.406C705.042 497.508 696.561 492.191 684.737 481.702C676.252 520.071 674.584 560.163 698.229 594.941C710.05 612.33 726.881 627.992 742.041 643.657C748.717 652.422 755.533 659.322 760.541 668.087C777.369 690.793 777.369 701.138 782.515 729.018C782.515 734.192 782.515 744.681 785.854 748.131C787.522 751.581 792.529 756.896 796.007 762.07C797.675 767.244 801.014 774.285 802.682 779.459C802.682 781.182 804.353 789.95 801.014 784.633C799.346 782.909 794.338 768.967 790.861 763.796C785.854 756.896 779.037 753.305 777.369 744.681C775.701 734.192 774.03 723.845 770.693 711.63C769.023 701.138 765.686 692.517 757.201 683.752C753.862 680.302 742.041 669.811 742.041 680.302C740.373 689.067 740.373 692.517 737.034 701.138V704.589L735.366 708.036C730.358 728.875 725.21 770.694 732.026 791.674C737.034 807.339 742.179 823.001 750.526 838.666C765.686 866.544 787.663 877.035 789.331 913.536C790.999 939.69 796.007 937.966 811.307 953.631C816.315 958.803 836.62 986.683 833.281 992C829.945 990.276 814.784 967.57 811.307 964.12C802.823 953.631 792.808 948.457 787.663 939.69C772.502 918.854 794.338 906.639 760.679 866.544L755.671 861.372C743.85 847.431 737.172 836.943 727.019 821.277C722.011 812.51 716.866 819.554 715.198 826.451C706.713 863.096 723.682 863.096 732.026 889.106C737.034 906.495 730.358 927.475 727.019 943.14C727.019 944.864 722.011 972.744 720.343 963.976C717.004 951.761 730.496 918.71 728.828 901.321C725.489 875.168 703.515 871.718 700.175 838.666C698.507 817.827 696.836 803.889 701.844 781.182C708.522 751.581 715.336 714.936 713.667 683.606C708.66 652.279 674.862 634.892 653.024 591.347C649.687 600.115 644.539 608.736 642.871 617.504C639.535 631.442 637.864 641.934 641.203 654.148C644.539 674.985 651.356 671.537 661.37 683.752C678.199 702.865 676.531 718.527 668.046 741.233C666.378 744.681 664.707 746.407 663.039 749.998C647.878 781.326 637.726 793.543 651.218 830.188C652.886 833.636 654.554 838.953 657.893 842.403C666.378 863.24 666.378 880.772 666.378 901.608C668.046 922.447 678.199 934.662 676.531 959.092C674.862 978.205 671.523 950.325 669.855 946.877C666.516 931.212 659.702 917.273 658.031 903.332C654.695 872.004 656.363 861.516 642.871 831.912C639.535 825.014 632.718 812.799 631.05 807.482C631.05 800.585 639.535 777.878 641.203 770.837C646.21 753.448 661.37 739.51 658.031 722.121C653.024 699.415 641.203 713.353 632.718 725.568C622.565 741.233 629.379 744.681 627.711 762.213C626.043 786.643 615.89 770.981 621.035 722.121C622.703 708.182 627.711 695.967 626.043 687.343C619.367 659.466 610.882 640.353 615.89 608.879C619.226 581.002 619.226 499.088 607.405 478.252C593.913 499.088 593.913 581.002 598.921 608.879C602.257 640.207 593.913 659.466 587.097 687.343C585.429 696.111 590.436 708.182 592.104 722.121C597.112 770.837 588.765 786.643 587.097 762.213C585.429 744.827 592.104 741.377 580.421 725.568C573.745 713.353 560.253 699.415 556.776 722.121C553.437 739.51 568.597 753.448 573.605 770.837C575.276 777.735 582.089 800.441 582.089 807.482C580.421 812.656 573.605 824.871 570.268 831.912C556.776 861.516 560.116 872.004 556.776 903.332C555.108 917.273 546.624 931.212 543.284 946.877C543.284 950.325 539.948 978.205 538.277 959.092C536.609 934.662 546.761 922.447 546.761 901.608C546.761 880.772 548.43 863.24 556.914 842.403C558.585 838.953 560.253 833.636 561.922 830.188C575.414 793.543 565.261 781.472 550.101 749.998C548.43 746.551 548.43 744.827 546.761 741.233C536.609 718.527 534.94 702.865 551.769 683.752C561.922 671.537 568.597 674.985 573.745 654.148C577.082 641.934 575.414 631.442 572.077 617.504C568.738 608.736 565.399 600.115 560.253 591.347C538.277 634.892 504.617 652.279 501.281 683.606C497.942 714.936 506.288 751.581 513.102 781.182C518.109 803.889 514.773 817.827 513.102 838.666C511.434 871.718 487.789 875.311 486.121 901.321C484.45 918.71 496.273 951.905 494.605 963.976C492.934 972.744 487.927 944.864 486.121 943.14C482.781 927.475 475.968 906.495 481.113 889.106C491.266 862.953 506.426 862.953 497.942 826.451C496.273 819.554 492.934 812.51 486.121 821.277C475.968 836.943 470.96 847.431 457.468 861.372C455.8 863.096 455.8 864.82 454.129 866.544C418.663 906.639 442.308 918.854 427.148 939.69C420.469 948.457 410.317 953.631 403.503 964.12C398.496 967.57 383.335 990.276 379.858 992C376.519 986.826 398.355 958.946 401.832 953.631C416.992 937.966 423.809 939.69 423.809 913.536C425.477 876.891 447.453 866.544 464.282 838.666C470.96 823.001 477.774 807.339 481.113 791.674C487.789 770.837 484.45 729.018 477.774 708.036V704.589C476.106 702.865 476.106 701.138 476.106 701.138C474.437 692.374 474.437 688.923 472.766 680.302C471.098 669.811 459.277 680.302 455.938 683.752C447.453 692.517 445.785 701.138 442.446 711.63C439.109 723.845 439.109 734.336 435.77 744.681C434.102 753.448 427.286 756.896 423.946 763.796C420.61 768.967 415.465 782.909 412.125 784.633C408.786 789.806 410.457 781.182 410.457 779.459C412.125 774.285 415.465 767.244 418.942 762.07C422.278 756.896 425.617 751.581 429.095 748.131C430.763 744.681 432.431 734.192 432.431 729.018C435.77 701.138 435.77 690.65 452.599 668.087C459.277 659.322 466.091 652.422 472.766 643.657C486.258 627.992 503.09 612.33 514.911 594.941C538.555 560.163 536.887 520.071 528.403 481.702C518.25 492.191 508.235 497.365 494.743 504.406C486.258 507.856 484.59 520.071 484.59 527.112C482.922 544.501 477.914 549.818 466.091 561.89C457.606 570.654 455.938 574.104 449.262 584.593C444.255 593.36 440.778 601.982 439.109 612.473C439.109 619.371 437.438 629.862 435.77 635.179C435.77 636.903 434.102 640.353 432.431 636.903C430.763 635.179 434.102 614.197 434.102 610.749C437.438 593.36 440.778 584.593 449.262 570.654C459.415 553.265 474.575 544.501 464.422 521.938C461.083 518.49 461.083 515.04 455.938 515.04C433.961 520.214 418.801 527.255 400.302 537.746C332.844 584.739 450.93 635.323 393.626 705.019C378.466 725.858 369.981 739.797 380.134 765.95C388.618 785.063 393.626 802.595 388.618 823.434C380.134 853.035 376.797 844.27 363.305 866.977C356.63 879.192 354.821 886.089 353.153 901.752C349.813 875.598 358.16 866.977 369.981 845.994C376.657 839.096 378.466 825.158 380.134 814.667V805.902C376.797 772.848 346.477 748.418 366.645 713.643C381.805 687.487 407.118 675.272 386.812 638.77C383.473 631.872 380.134 626.555 374.989 621.384C369.981 614.484 364.836 609.169 363.168 602.269C358.16 623.108 353.012 644.087 344.668 664.927C339.661 675.415 336.184 682.313 332.844 692.804C329.508 708.469 332.844 720.684 327.837 734.623C322.832 752.012 314.348 755.459 302.524 765.95C292.371 774.718 289.032 781.615 285.695 795.554C282.356 812.943 279.02 814.667 270.534 828.605C268.865 830.332 265.527 839.096 262.05 837.373C260.381 837.373 263.719 828.605 265.388 826.882C272.064 814.667 277.211 811.219 280.547 795.554C282.218 779.889 283.887 774.718 294.039 762.503C299.047 757.329 305.863 750.288 309.2 745.114C314.207 739.94 315.878 731.175 310.871 724.275C309.2 720.827 305.863 722.551 304.192 724.275C287.364 738.216 278.879 745.114 257.043 746.981C246.889 746.981 236.875 750.431 226.722 753.879C211.561 759.053 199.739 764.37 196.401 781.759C189.724 806.189 186.247 807.912 167.749 820.127C157.595 827.025 150.919 830.619 142.435 839.24C140.766 840.964 122.267 856.629 123.936 851.455C125.605 842.69 139.097 825.301 145.912 820.127C161.072 807.912 176.233 802.738 181.379 780.035C186.386 759.196 189.864 753.879 208.362 745.257C216.846 741.807 223.523 738.36 232.007 734.766C237.014 733.042 243.829 729.592 248.837 727.868C260.659 724.421 267.335 720.971 277.489 712.206L279.158 710.48C312.817 682.602 326.309 628.568 334.794 585.026C356.768 471.785 462.892 517.054 503.365 437.01C484.869 435.283 464.56 435.283 446.064 433.559C299.325 475.378 348.283 555.566 263.997 618.221C260.659 619.947 257.321 621.671 255.513 623.395C245.359 628.568 240.352 630.292 231.868 637.333C218.376 649.548 221.714 656.446 215.038 668.661C208.362 679.152 199.878 686.05 189.724 689.5C181.24 692.947 171.226 694.674 162.741 698.265C147.581 703.439 137.428 712.206 129.082 724.421C125.744 727.868 124.075 733.186 120.598 736.636C118.929 738.36 115.591 741.807 115.591 738.36C115.591 736.636 118.929 731.462 118.929 731.462C122.267 722.695 123.936 720.971 129.082 714.073C139.236 703.582 152.727 694.961 166.218 689.643C171.226 687.919 183.048 684.469 188.194 680.876C193.202 677.428 198.348 672.111 200.017 666.937C201.686 660.039 201.686 654.722 196.679 649.548C191.672 642.651 186.525 642.651 181.518 647.824C174.842 654.722 174.842 656.592 166.358 660.039C154.535 663.49 142.713 666.937 130.89 672.254C120.737 675.705 108.915 677.428 97.2311 682.746C87.0778 687.92 77.0634 687.919 65.241 689.643C50.0805 689.643 45.0733 693.091 31.5819 700.135C24.9057 705.306 21.4284 708.899 14.7523 714.073C8.07605 719.247 6.2679 715.797 9.74511 712.349C14.7523 707.176 21.5675 701.858 28.2437 696.684C36.728 691.51 46.7424 686.193 58.5648 684.469C70.3872 682.746 80.5405 682.746 92.2239 675.705C100.708 670.531 109.054 666.937 119.207 661.763C125.883 658.316 132.699 654.866 139.375 651.275C146.051 649.548 152.866 646.101 159.542 642.507C165.199 640.207 170.252 637.286 174.703 633.742C179.71 628.568 186.525 626.845 193.201 623.251C198.209 621.527 201.686 619.801 206.693 619.801C215.177 616.354 226.861 607.586 233.676 600.688C243.829 593.791 248.837 590.2 235.345 583.299C226.861 578.128 216.846 572.811 208.362 571.085C191.533 567.637 183.048 576.258 171.226 586.75C154.396 600.688 144.243 598.965 122.267 600.688C120.598 600.688 113.782 600.688 113.782 598.965C112.113 597.241 118.79 595.514 120.459 595.514C138.957 593.791 149.111 595.517 165.94 583.299C172.617 578.128 179.432 569.361 187.916 565.913C204.746 557.146 218.237 564.187 235.067 565.913C246.889 567.637 258.712 565.913 267.057 557.146C275.541 548.381 280.547 524.095 282.218 513.603C233.259 538.033 211.422 504.839 174.286 527.542C165.801 532.716 157.456 538.033 148.972 543.207C118.651 560.596 106.828 565.913 71.3608 558.87C51.1931 553.698 30.8864 550.105 8.91058 546.655C-1.24281 544.931 -4.58091 541.483 8.91058 541.483C22.4021 541.483 37.5627 541.483 49.3851 543.207C62.8765 544.931 74.6989 544.931 88.1904 546.655C98.3437 546.655 106.689 546.655 116.842 543.207C130.334 538.033 150.502 522.371 158.986 510.156C167.47 501.388 175.816 503.256 185.969 501.388C201.13 499.665 209.614 497.941 224.774 497.941C253.427 499.665 261.911 494.491 283.749 477.102C317.406 449.225 366.366 402.232 422 381.252C438.831 376.078 453.991 369.037 470.96 362.137C479.445 358.689 494.605 353.372 492.934 341.301C491.266 329.229 491.266 325.638 499.613 315.147C508.094 308.249 528.262 296.034 508.097 292.441C477.774 285.543 447.453 297.615 425.477 318.594C416.992 327.362 413.656 327.362 408.648 339.433C403.641 353.372 396.825 363.863 385.004 372.485C373.18 379.382 368.172 379.382 356.351 381.252C344.528 384.7 332.706 393.467 324.36 402.088C319.355 407.262 314.207 417.751 310.871 421.201C309.2 422.925 305.863 422.925 307.531 419.477C307.531 419.477 314.207 407.262 314.207 405.536C322.692 393.321 336.184 381.106 347.867 375.935C354.542 372.485 361.359 372.485 366.366 369.037C374.851 365.587 384.863 356.822 384.863 348.198C384.863 344.751 381.526 343.024 378.187 344.751C352.874 349.922 336.046 343.024 314.069 362.137C307.393 369.037 300.577 376.078 293.901 381.252C287.226 390.017 278.741 396.915 270.256 403.956C258.434 414.447 248.28 426.662 236.597 437.01C216.429 454.396 192.784 470.061 165.801 473.654C137.149 477.102 125.327 468.481 100.013 461.44H98.3437C86.5213 457.989 76.368 457.989 66.3536 464.887C57.8694 470.061 51.1931 473.654 41.0398 473.654C39.3707 473.654 36.0326 473.654 36.0326 475.378C36.0326 475.378 34.3635 473.654 39.3707 471.928C49.5241 468.481 51.1931 468.481 59.5384 463.163C83.1832 445.774 100.013 456.266 125.327 463.163C157.317 470.061 191.115 461.44 212.952 435.283C217.959 430.112 224.774 421.344 216.29 416.171C207.806 412.723 150.502 414.447 148.833 410.997C147.164 409.273 224.774 402.232 231.451 400.508C292.093 391.741 280.409 339.577 339.382 327.362C447.315 296.034 373.042 240.276 457.468 240.276C474.297 240.276 516.441 240.276 526.594 224.612C528.262 219.438 531.601 212.397 533.269 208.948C536.609 196.733 539.948 181.069 538.277 168.854C536.609 160.088 538.277 154.915 539.948 148.017C544.953 134.077 543.284 137.526 544.953 123.587C546.624 76.595 538.277 39.9502 538.277 3.44898V0H538.139Z" fill="white"/>
</svg>
