<svg width="1508" height="1213" viewBox="0 0 1508 1213" fill="none" xmlns="http://www.w3.org/2000/svg">
<path d="M901.523 663.663C990.288 692.574 1109.37 737.799 1269.73 576.556C1471.37 371.943 1503.15 123.962 1507.9 29.0696C1509.36 13.1308 1495.11 -1.69616 1479.41 0.157231C1382.61 4.97597 1109.73 19.4322 903.349 230.345C744.816 391.218 771.482 491.299 803.264 538.004C914.309 412.345 1068.46 298.179 1258.77 225.527C1195.21 264.077 1047.64 368.977 935.13 485.001C844.541 578.41 765.272 679.973 714.5 787.838C684.178 712.222 630.481 623.631 546.102 531.705C439.802 414.199 296.977 306.334 234.878 265.93C420.443 343.401 568.018 460.904 674.318 588.047C707.555 542.822 736.051 446.448 585.554 281.869C391.951 66.1371 123.832 45.3793 30.3184 35.7419C14.2461 34.2594 0 46.8623 0 63.1716C1.46112 156.582 23.7436 401.226 217.345 609.175C352.135 755.588 461.718 739.653 545.737 715.556C577.514 754.108 648.747 854.191 647.286 987.633C488.749 1005.42 353.596 1071.41 279.078 1164.82C263.37 1184.09 277.616 1213 301.36 1213H1153.57C1179.14 1213 1191.56 1184.09 1175.85 1164.82C1099.51 1069.92 958.506 1000.6 793.398 986.148C790.478 813.414 863.532 721.859 901.523 663.663Z" fill="white"/>
</svg>
