<svg width="1080" height="1080" viewBox="0 0 1080 1080" fill="none" xmlns="http://www.w3.org/2000/svg">
<path d="M591.999 578.822C588.06 582.542 584.996 585.167 582.154 587.79C418.456 750.107 533.787 633.73 369.873 795.828C362.431 803.267 360.464 808.953 364.402 819.234C387.599 880.706 379.941 939.988 346.677 995.115C330.7 1021.59 309.472 1044.99 289.995 1069.27C281.897 1079.55 270.08 1082.83 258.043 1077.37C242.943 1070.59 227.405 1063.59 214.055 1053.74C138.335 997.521 71.3684 932.114 18.189 853.797C-8.51012 814.421 -6.54054 803.486 28.9123 772.638C70.2739 736.546 116.232 709.857 172.037 703.731C203.332 700.231 233.532 705.044 262.639 716.202C270.517 719.263 275.551 718.608 281.678 712.263C445.156 547.101 329.824 661.074 493.52 496.131C495.926 493.725 498.117 490.664 499.868 488.693C468.572 451.943 437.275 415.847 407.076 379.316C395.476 365.316 385.847 350.004 375.125 335.346C370.747 329.44 370.312 325.064 376.218 319.158C452.379 243.468 527.223 166.466 604.692 92.0889C689.604 10.7116 792.899 -14.2267 907.136 7.43018C946.968 14.8679 985.264 29.5245 1024 41.5561C1029.25 43.0876 1035.16 48.3378 1037.35 53.3689C1061.64 110.027 1077.4 168.873 1079.59 230.562C1083.09 327.471 1051.36 411.254 983.296 480.38C909.981 554.978 835.357 628.479 761.606 702.638C755.258 708.983 750.445 710.076 743.442 704.389C698.359 667.419 653.059 630.666 607.757 593.696C602.505 589.322 597.909 584.509 591.783 578.822H591.999ZM269.642 997.741C311.879 957.707 330.262 911.769 314.067 856.642C298.311 803.047 260.888 770.89 205.958 762.139C156.499 754.265 116.45 773.516 82.7483 810.705C154.092 864.735 215.587 926.427 269.861 997.741H269.642Z" fill="white"/>
</svg>
